<svg width="653" height="110" viewBox="0 0 653 110" fill="none" xmlns="http://www.w3.org/2000/svg">
<path fill-rule="evenodd" clip-rule="evenodd" d="M106.824 0.464528C104.67 0.631178 102.909 1.11171 102.909 1.53239C102.909 1.95306 102.145 2.29687 101.212 2.29687C100.279 2.29687 99.7144 2.61319 99.9575 2.99988C100.316 3.5694 88.8931 11.1957 87.6808 11.1957C87.4896 11.1957 85.6838 12.2878 83.6688 13.6226C81.6537 14.9575 79.3032 16.0496 78.4452 16.0496C77.5872 16.0496 75.601 17.1272 74.0318 18.4434C72.4626 19.7604 70.7055 20.8525 70.1277 20.8703C69.55 20.8889 68.6945 21.8921 68.2264 23.1007C67.6651 24.5504 67.1673 24.967 66.7635 24.3271C65.936 23.0117 62.5298 25.3294 62.5125 27.2192C62.5009 28.3987 62.3888 28.4206 61.7006 27.3754C61.0141 26.3318 60.8996 26.356 60.8888 27.5436C60.8823 28.3033 59.4334 30.4147 57.6688 32.2349C55.0999 34.886 53.9972 35.483 52.1255 35.2371C50.5167 35.0251 49.3143 35.4539 48.2643 36.6131C47.4261 37.5394 46.9992 37.804 47.3165 37.2013C47.7113 36.4505 47.2151 36.5419 45.7382 37.4925C44.5531 38.2546 43.7874 39.2027 44.0372 39.5983C44.2861 39.9947 43.7668 40.3191 42.8817 40.3191C41.9965 40.3191 41.0891 40.7899 40.8641 41.3651C40.6391 41.9403 38.2812 44.0307 35.6249 46.0095C32.9678 47.9891 29.5863 50.7614 28.1094 52.1699C21.7913 58.1984 15.8598 62.7271 14.5461 62.5281C12.5598 62.2264 5.92944 68.1853 2.64679 73.2221C-0.480089 78.0201 -0.729811 79.1503 1.33637 79.1503C3.21464 79.1503 5.06654 84.7913 4.37589 88.4067C3.94897 90.6395 4.141 91.1305 5.58741 91.501C6.53273 91.7437 7.30579 92.3618 7.30579 92.8747C7.30579 93.3876 6.93492 93.5825 6.48163 93.3075C6.01845 93.0268 5.68301 93.6254 5.71516 94.6755C5.78521 96.939 7.15497 100.386 7.26046 98.5659C7.3231 97.4916 7.42035 97.4907 8.10853 98.5594C8.72748 99.5205 9.09423 99.5609 9.90851 98.7617C10.6857 97.9988 10.6939 97.7569 9.94312 97.7569C9.39917 97.7569 8.95412 97.3929 8.95412 96.9479C8.95412 96.503 9.88131 96.1389 11.0145 96.1389C12.1478 96.1389 13.0749 96.4795 13.0749 96.8953C13.0749 98.5926 11.4464 101.55 9.1206 104.077C6.24674 107.2 4.98659 111.126 7.31651 109.697C8.08792 109.224 8.72088 108.256 8.72336 107.545C8.73324 104.817 8.99203 104.293 10.1187 104.718C10.8134 104.98 11.3978 104.569 11.5692 103.697C11.7522 102.762 12.5928 102.232 13.9073 102.222C15.3744 102.21 15.9603 101.764 15.9628 100.655C15.9653 99.8012 16.4285 98.9518 16.993 98.7673C17.5576 98.5821 18.0199 98.0756 18.0199 97.642C18.0199 97.2076 17.6746 97.062 17.2526 97.3176C16.0518 98.0465 15.4436 96.4164 16.5867 95.533C17.148 95.0994 18.6273 94.5048 19.8743 94.2128C21.1204 93.9207 22.1408 93.3026 22.1408 92.8399C22.1408 92.3772 21.6776 92.272 21.1105 92.6061C20.4108 93.0187 20.443 92.7752 21.2111 91.8449C22.5166 90.2657 24.183 89.9785 23.2839 91.4873C22.9526 92.0439 23.4874 91.8052 24.4715 90.9574C26.4503 89.2537 26.827 88.4495 25.2314 89.3338C24.4377 89.773 24.4229 89.6687 25.1671 88.8783C25.6978 88.3136 25.9484 87.2595 25.7226 86.5347C25.3896 85.4636 25.486 85.4814 26.2401 86.6334C27.3734 88.363 28.8651 88.5159 28.2083 86.8356C27.947 86.1682 28.144 85.6222 28.6459 85.6222C29.1478 85.6222 29.5582 84.8941 29.5582 84.0042C29.5582 83.1143 29.8368 82.4437 30.1764 82.5148C31.4563 82.781 33.6791 81.3612 33.6791 80.2772C33.6791 79.6575 34.0499 79.1503 34.5032 79.1503C34.9565 79.1503 35.3274 79.5289 35.3274 79.9908C35.3274 80.4528 36.1392 80.0895 37.1307 79.1826C38.1221 78.2758 39.9765 77.0801 41.2515 76.5268C42.5265 75.9726 43.569 75.2672 43.569 74.9581C43.569 74.6491 44.3108 74.4517 45.2174 74.5189C46.1239 74.586 46.8715 75.018 46.8781 75.4799C46.8855 75.941 47.2506 75.7728 47.6899 75.1054C48.3772 74.061 48.4909 74.0836 48.5017 75.2672C48.5082 76.0236 48.0072 76.9337 47.3874 77.2896C46.6357 77.7216 46.4791 78.4756 46.9168 79.5548C47.2786 80.4447 47.6 80.7181 47.6322 80.1615C47.7146 78.7167 49.8615 78.9133 51.8016 80.5434C53.8414 82.2584 53.9164 83.1912 52.0167 83.2073C50.7928 83.2178 50.7607 83.3352 51.8041 83.9832C52.5771 84.4629 53.3263 84.458 53.8233 83.9702C55.1716 82.6467 56.0312 83.1184 55.165 84.7072C54.7117 85.538 54.5329 86.4069 54.7678 86.6366C55.0018 86.8672 53.9148 87.8315 52.3513 88.7804C49.536 90.4882 46.8657 93.6707 46.8657 95.3178C46.8657 95.7878 48.8132 95.0686 51.1925 93.7201C53.5727 92.3723 55.4271 90.9089 55.3134 90.468C55.2005 90.0279 55.6859 89.6671 56.3922 89.6671C57.0985 89.6671 57.4776 89.35 57.2329 88.9616C56.9889 88.5741 58.418 87.6462 60.4084 86.8995C62.3987 86.1536 64.2506 84.9734 64.5226 84.2776C64.9223 83.2559 65.252 83.2049 66.2434 84.0123C66.9176 84.5616 67.4698 84.6635 67.4698 84.238C67.4698 83.8125 67.9849 83.4646 68.6146 83.4646C69.911 83.4646 75.9068 80.8216 76.5356 79.973C76.7623 79.6672 77.6894 79.0039 78.596 78.4991C79.9081 77.7685 79.9707 77.5768 78.9026 77.5566C78.165 77.5436 77.1035 78.0743 76.543 78.7369C75.9826 79.3994 75.2211 79.7578 74.851 79.5329C74.4801 79.308 73.9453 79.4917 73.6618 79.9415C72.8879 81.1719 69.9423 82.561 69.9423 81.6962C69.9423 81.2852 73.0024 79.3606 76.7417 77.4199C85.3163 72.9705 85.4432 72.9227 83.9531 74.6944C82.7638 76.1085 82.819 76.1125 85.3954 74.8052C88.1225 73.4211 89.0827 72.3492 86.8377 73.1945C84.8564 73.9412 85.4143 72.7189 87.4558 71.8411C88.4753 71.4018 90.7937 70.1293 92.6068 69.0121C94.42 67.8949 96.3304 66.7817 96.8521 66.5382C97.3746 66.2939 98.0018 65.3442 98.2457 64.4268C98.6488 62.9156 98.8103 62.8776 99.9765 64.0215C100.983 65.0093 101.08 65.7592 100.422 67.4556C99.7202 69.2702 99.7869 69.5493 100.833 69.1561C101.522 68.8964 102.085 69.0558 102.085 69.5096C102.085 69.9643 103.197 70.7166 104.557 71.1818C107.288 72.1162 107.575 73.1161 105.781 75.4435C104.917 76.5656 104.829 77.284 105.466 78.0371C105.951 78.6107 106.131 79.4221 105.868 79.8403C105.124 81.0215 106.318 85.7152 107.471 86.1496C108.038 86.3632 110.245 84.8763 112.374 82.8441C114.504 80.8128 116.583 79.1503 116.995 79.1503C118.106 79.1503 117.902 80.4972 116.597 81.7779C115.805 82.5561 115.692 83.3238 116.23 84.2687C117.063 85.7297 116.526 87.2401 115.174 87.2401C114.721 87.2401 114.634 86.7855 114.981 86.2289C115.35 85.6391 114.769 85.7637 113.588 86.5274C111.145 88.1082 110.442 90.4761 112.415 90.4761C113.307 90.4761 113.63 90.0449 113.325 89.2626C113.064 88.5952 113.197 88.0491 113.62 88.0491C114.706 88.0491 116.158 90.9445 115.449 91.6968C113.941 93.2954 119.584 91.0334 121.538 89.2561C122.756 88.147 124.256 87.2401 124.87 87.2401C125.484 87.2401 125.985 86.8761 125.985 86.4311C125.985 85.9862 126.542 85.6222 127.222 85.6222C127.902 85.6222 128.458 85.2581 128.458 84.8132C128.458 84.3682 129.014 84.0042 129.694 84.0042C130.374 84.0042 130.93 83.6806 130.93 83.285C130.93 82.8902 132.229 82.3272 133.815 82.0351C135.542 81.7172 136.7 81.0312 136.7 80.3274C136.7 79.6802 137.009 79.1503 137.386 79.1503C137.764 79.1503 138.074 80.2262 138.074 81.5416C138.074 82.9897 137.721 83.7599 137.18 83.4937C136.69 83.2526 137.073 83.7235 138.032 84.5405C138.992 85.3576 139.958 86.775 140.18 87.6899C140.527 89.1234 140.258 89.3055 138.229 89.0134C136.011 88.6939 134.984 89.8394 136.605 90.8231C137.638 91.4493 142.556 89.6509 142.043 88.8354C141.498 87.9706 142.42 87.427 145.305 86.9133C146.575 86.6876 148.704 85.3034 150.038 83.8375C151.371 82.3717 152.823 81.1727 153.264 81.1727C153.706 81.1727 154.387 80.6647 154.779 80.0434C155.169 79.4229 156.046 79.1244 156.728 79.3809C157.52 79.6802 158.123 79.2571 158.403 78.2038C158.655 77.2589 159.231 76.797 159.759 77.1173C160.595 77.6245 170.162 73.2334 176.949 69.2289L179.697 67.6069L179.421 69.5363C179.176 71.2417 179.431 71.4374 181.617 71.2263C182.976 71.0952 183.718 71.2773 183.265 71.6308C182.812 71.9843 182.441 72.82 182.441 73.4874C182.441 74.1653 181.78 74.6475 180.943 74.5795C180.12 74.5132 179.625 74.6345 179.845 74.8489C180.064 75.0641 179.518 75.9516 178.633 76.8204C176.653 78.7636 177.325 80.3225 179.623 79.1147C181.524 78.1164 183.149 78.8445 182.533 80.4196C182.295 81.0279 182.461 81.7439 182.902 82.0117C183.343 82.2794 183.516 82.7956 183.287 83.1596C183.058 83.5228 183.43 84.276 184.113 84.8326C185.134 85.665 186.711 85.2654 192.964 82.5917C197.149 80.8022 201.477 78.9958 202.582 78.5775C203.689 78.1593 204.245 77.6059 203.819 77.3487C203.393 77.0906 200.449 78.1083 197.276 79.6106C191.078 82.5432 190.27 82.7802 190.27 81.6654C190.27 81.2682 191.754 80.3613 193.567 79.6494C195.38 78.9367 196.864 78.148 196.864 77.8956C196.864 77.6432 196.493 77.6618 196.039 77.9368C194.869 78.6471 195.066 77.3891 196.395 75.6692C197.132 74.7146 197.634 74.5423 197.848 75.1709C198.071 75.8286 198.618 75.6943 199.587 74.7438C200.364 73.9809 200.789 73.0222 200.531 72.6129C200.274 72.2044 200.478 71.8694 200.984 71.8694C201.491 71.8694 201.698 71.5394 201.444 71.1357C201.19 70.7328 201.817 70.6042 202.838 70.8509C203.858 71.0977 204.42 71.0087 204.087 70.6527C203.131 69.6318 207.693 67.6142 208.708 68.61C209.975 69.8543 212.61 69.6156 214.312 68.1036C215.141 67.3674 215.819 67.1555 215.819 67.6328C215.819 68.1101 216.044 69.0768 216.32 69.7806C216.595 70.4845 216.454 71.0605 216.007 71.0605C214.72 71.0605 205.783 75.2308 206.197 75.6377C206.403 75.8399 208.537 75.0738 210.94 73.9356C213.343 72.7982 215.516 72.1768 215.77 72.5546C216.024 72.9333 216.788 73.2512 217.468 73.2625C220.015 73.3021 221.227 73.9566 223.023 76.2638C224.672 78.3801 224.738 78.7782 223.642 79.9674C222.008 81.739 222.091 82.3175 223.913 81.8499C224.738 81.6379 225.866 82.0011 226.421 82.6572C227.289 83.6846 227.785 83.5309 230 81.5441C231.414 80.2756 232.79 79.2619 233.055 79.2902C233.321 79.3186 233.724 79.2716 233.951 79.1859C236.255 78.3138 238.004 78.5476 238.331 79.7708C238.556 80.617 238.743 80.291 238.8 78.948C238.862 77.5072 239.351 76.7233 240.187 76.7233C241.147 76.7233 241.333 76.2541 240.909 74.9031C240.596 73.9016 240.618 73.3418 240.959 73.6573C241.299 73.9736 242.895 73.6921 244.504 73.0319C246.498 72.2141 247.698 72.0959 248.273 72.6598C249.335 73.7026 250.696 73.7479 250.048 72.7197C249.439 71.7513 254.921 70.6867 256.278 71.5094C256.882 71.8759 257.07 71.7821 256.75 71.274C256.22 70.4319 260.809 67.848 262.921 67.7986C263.533 67.7849 264.753 67.2388 265.633 66.5852C266.513 65.9323 267.903 65.3976 268.723 65.3976C269.543 65.3976 270.214 64.9947 270.214 64.502C270.214 64.0094 270.771 63.816 271.451 64.0725C272.13 64.3281 272.687 64.1461 272.687 63.668C272.687 63.189 273.232 63.003 273.897 63.253C274.562 63.5037 275.299 63.4026 275.535 63.0289C275.771 62.6543 277.691 62.0937 279.803 61.783C281.915 61.4724 284.237 60.9077 284.964 60.5283C285.691 60.1497 287.49 59.471 288.964 59.0204C291.264 58.3165 291.64 58.395 291.624 59.5745C291.599 61.4756 289.083 64.3872 287.178 64.718C286.285 64.8734 285.246 66.048 284.788 67.42C284.342 68.7549 283.623 70.0743 283.189 70.3526C282.713 70.6576 282.778 71.0872 283.353 71.4358C283.96 71.8039 284.026 72.354 283.536 72.9527C282.293 74.4695 283.936 77.5202 286.053 77.6278C287.087 77.6812 288.212 77.6812 288.552 77.6278C288.892 77.5752 289.17 78.1593 289.17 78.9262C289.17 80.0709 289.398 79.9989 290.453 78.5217C291.816 76.6101 293.734 76.0349 293.075 77.7346C292.86 78.2911 293.009 79.6066 293.407 80.6582C293.926 82.0286 294.422 82.3466 295.153 81.7811C295.716 81.3467 297.196 80.7521 298.442 80.46C299.688 80.168 300.708 79.571 300.708 79.1349C300.708 78.6981 301.649 78.3413 302.798 78.3413C303.947 78.3413 305.782 77.7661 306.876 77.0623C308.644 75.9249 310.33 75.361 312.541 75.1677C312.929 75.1329 313.034 74.5593 312.772 73.8919C312.512 73.2245 312.627 72.6784 313.028 72.6784C313.429 72.6784 313.904 73.1104 314.084 73.6395C314.298 74.2697 314.98 74.0407 316.07 72.9705C318.795 70.2952 320.542 70.0193 322.619 71.9342C324.361 73.54 324.667 73.578 326.947 72.4608C329.309 71.304 329.415 71.3315 329.779 73.2018C329.987 74.2697 329.83 75.3424 329.43 75.5851C329.03 75.8278 328.892 76.3269 329.124 76.6942C329.355 77.0623 328.99 77.5712 328.313 77.8268C326.715 78.4287 326.718 79.9593 328.318 79.9593C328.998 79.9593 329.542 80.4147 329.527 80.9705C329.489 82.3717 326.618 85.6222 325.419 85.6222C324.866 85.6222 324.649 86.1739 324.924 86.8777C325.205 87.5977 325.067 87.9221 324.6 87.6389C324.152 87.3671 323.785 87.5694 323.785 88.0879C323.785 88.6065 323.29 88.8451 322.686 88.617C322.081 88.3897 321.587 88.6987 321.587 89.3038C321.587 89.9098 321.842 90.2495 322.156 90.0602C323.473 89.261 327.541 87.7983 328.112 87.9189C328.451 87.9901 329.515 87.2781 330.476 86.3357C331.531 85.2994 332.428 84.9499 332.744 85.4531C333.442 86.5614 337.956 85.6739 337.539 84.5098C337.36 84.009 336.509 83.7251 335.65 83.8788C334.306 84.1183 334.362 83.9217 336.048 82.4801C337.127 81.557 338.324 80.9932 338.709 81.227C339.095 81.4607 340.137 81.2698 341.026 80.8038C342.172 80.2012 342.805 80.2149 343.206 80.8524C343.602 81.481 344.006 81.4211 344.555 80.6526C345.167 79.7951 345.431 79.7772 345.759 80.5709C346.222 81.6937 350.012 79.9512 352.762 77.3503C353.574 76.5834 355.209 75.7162 356.397 75.4233C357.99 75.0309 358.266 74.7106 357.448 74.2017C356.689 73.7301 357.119 73.4971 358.812 73.4631L361.284 73.4146L358.812 72.2707L356.339 71.1268L358.615 71.5879C360.47 71.9641 360.797 71.8088 360.381 70.7458C360.101 70.029 360.252 69.4425 360.716 69.4425C361.18 69.4425 361.746 69.8979 361.975 70.4537C362.307 71.2627 362.404 71.2627 362.456 70.4537C362.491 69.8979 363.17 69.4368 363.963 69.4304C364.864 69.4223 365.06 69.1949 364.486 68.8236C363.98 68.4968 363.307 67.4103 362.989 66.4096C362.521 64.9397 362.817 64.4381 364.526 63.8006C365.69 63.3662 366.642 62.6438 366.642 62.1956C366.642 61.7474 365.341 62.0977 363.751 62.9739C362.161 63.8508 360.585 64.6234 360.248 64.6921C359.239 64.8968 355.56 67.3221 354.91 68.2104C354.229 69.1415 354.15 68.9984 353.871 66.3425C353.715 64.8572 354 64.54 355.214 64.8515C356.061 65.0691 356.572 64.9575 356.349 64.6048C355.756 63.6615 357.706 62.317 360.352 61.8461C361.623 61.6196 363.095 61.11 363.623 60.7127C365.872 59.0195 371.47 57.3692 371.788 58.306C372.31 59.8431 377.793 57.9169 377.653 56.2464C377.591 55.4948 378.054 54.8808 378.683 54.8808C379.313 54.8808 379.828 55.4487 379.828 56.142C379.828 56.8879 380.216 57.1678 380.778 56.8272C381.299 56.5109 382.277 56.9445 382.948 57.7907C384.127 59.2752 384.152 59.276 383.633 57.8101C383.168 56.4955 383.414 56.3531 385.462 56.7552C386.785 57.0149 388.246 56.811 388.774 56.2933C389.293 55.7836 389.718 55.6768 389.718 56.0562C389.718 56.4357 390.46 55.9066 391.366 54.8808C392.273 53.855 393.015 53.4262 393.015 53.9278C393.015 54.5734 393.634 54.6098 395.129 54.0516C397.735 53.0792 397.96 53.0759 397.96 54.0079C397.96 54.4172 396.847 54.9924 395.487 55.2853C394.127 55.5781 393.015 56.1193 393.015 56.4874C393.015 56.8555 393.814 56.951 394.792 56.7002C396.01 56.3871 396.384 56.5384 395.979 57.1799C395.215 58.3942 396.523 58.3942 397.76 57.1799C398.482 56.4713 399.014 56.4882 399.95 57.2511C401.038 58.1369 400.993 58.463 399.573 59.958C397.426 62.2207 397.445 64.049 399.608 63.3751C400.865 62.9836 401.256 63.2295 401.256 64.4106C401.256 65.2625 401.998 66.7987 402.905 67.8245C404.704 69.8607 405.017 70.6285 403.729 69.847C403.276 69.5719 402.905 69.7329 402.905 70.2037C402.905 70.6746 403.34 71.0605 403.872 71.0605C404.405 71.0605 403.97 71.9706 402.905 73.0829C401.84 74.1953 401.219 75.1507 401.525 75.2065C401.831 75.2623 402.451 75.3982 402.905 75.5099C403.358 75.6215 404.162 75.7574 404.691 75.8132C405.85 75.9354 404.791 77.1278 403.523 77.1278C403.032 77.1278 402.458 77.6334 402.249 78.2515C402.038 78.8712 402.242 79.1479 402.704 78.8671C403.164 78.588 403.735 79.0831 403.97 79.9682C404.401 81.5886 407.026 82.2754 407.026 80.7683C407.026 80.3233 407.582 79.9593 408.262 79.9593C408.942 79.9593 409.498 79.6357 409.498 79.2401C409.498 78.8445 409.962 78.5379 410.528 78.5589C413.194 78.656 414.443 78.2547 414.443 77.3026C414.443 76.7306 415.648 75.5479 417.122 74.6734C420.08 72.9163 425.157 71.7368 425.157 72.8054C425.157 73.1808 424.783 73.4874 424.326 73.4874C423.826 73.4874 423.895 74.116 424.498 75.0641C425.243 76.2355 425.775 76.4175 426.566 75.7744C427.236 75.2283 427.63 75.2065 427.63 75.7161C427.63 76.7201 425.167 78.8081 425.132 77.8333C425.118 77.4458 424.734 77.7572 424.277 78.5257C423.675 79.541 423.811 80.4681 424.773 81.9097C425.774 83.4088 425.887 84.2849 425.233 85.483C424.577 86.686 424.663 87.3105 425.587 88.0629C426.577 88.8702 426.806 88.8103 426.806 87.7433C426.806 86.9707 427.483 86.4311 428.454 86.4311C429.36 86.4311 430.114 85.9765 430.129 85.4199C430.146 84.7363 430.48 84.8156 431.159 85.6626C431.979 86.6876 432.707 86.7612 435.137 86.0671C436.773 85.6003 438.662 84.7646 439.336 84.2113C440.01 83.6579 441.763 82.9687 443.232 82.6807C444.701 82.3919 446.087 81.6848 446.313 81.1088C446.538 80.5328 447.247 80.2594 447.89 80.5013C448.599 80.7682 449.058 80.4309 449.058 79.6413C449.058 78.1035 450.389 77.9044 450.985 79.3525C451.233 79.9568 451.427 79.7934 451.465 78.948C451.51 77.9862 452.205 77.5323 453.636 77.5323C454.794 77.5323 457.298 76.8366 459.199 75.9864C461.101 75.1361 462.878 74.4986 463.148 74.5706C463.418 74.6426 464.16 74.3126 464.796 73.8377C465.432 73.3628 468.179 72.2707 470.898 71.4107C473.618 70.5508 476.328 69.2103 476.921 68.4313C478.1 66.8812 479.552 66.5463 479.552 67.8245C479.552 68.2695 478.903 68.6699 478.11 68.7144C477.148 68.7678 477.354 69.0105 478.728 69.4425C480.478 69.9926 480.54 70.1107 479.14 70.228L477.492 70.3655L479.14 71.0605C480.25 71.5289 480.384 71.778 479.552 71.8249C478.456 71.8864 478.455 71.9811 479.548 72.659C480.605 73.3151 480.547 73.5966 479.136 74.6434C478.229 75.3157 477.954 75.8747 478.522 75.8885C479.089 75.903 479.552 76.4297 479.552 77.0599C479.552 77.6901 480.669 78.6908 482.034 79.2838C483.399 79.8767 484.354 80.7763 484.156 81.2828C483.936 81.8458 484.404 82.0473 485.363 81.8005C486.643 81.4721 486.771 81.1056 486.059 79.8007C485.58 78.9222 485.403 77.991 485.667 77.7329C485.93 77.4741 486.145 77.6876 486.145 78.2062C486.145 78.7256 486.516 79.1503 486.97 79.1503C487.423 79.1503 487.794 78.6172 487.794 77.9651C487.794 77.3139 488.535 76.3908 489.442 75.9144C490.349 75.4379 491.09 74.7316 491.09 74.3433C491.09 73.5125 487.832 74.1847 486.351 75.3214C485.785 75.7566 485.324 75.7946 485.326 75.4063C485.334 74.366 490.129 71.8694 492.119 71.8694C493.064 71.8694 493.584 71.6211 493.274 71.3169C492.965 71.0127 493.916 70.2668 495.388 69.6593C497.565 68.7605 497.836 68.4013 496.843 67.7323C495.911 67.1037 496.061 67.0301 497.478 67.4216C498.87 67.8059 499.332 67.5964 499.332 66.5787C499.332 65.7074 499.773 65.3903 500.568 65.6904C501.248 65.9461 501.804 65.8288 501.804 65.4283C501.804 65.0093 502.827 64.989 504.223 65.3822C506.152 65.925 506.552 65.832 506.196 64.9211C505.93 64.2432 506.264 63.7796 507.016 63.7796C507.713 63.7796 508.402 62.9892 508.546 62.0225C508.847 60.0195 510.87 58.9662 510.87 60.8131C510.87 61.4805 510.406 62.1867 509.84 62.3817C509.274 62.5766 509.829 62.7433 511.076 62.7522C512.323 62.7611 513.343 62.3768 513.343 61.8987C513.343 61.2968 513.625 61.3065 514.26 61.9295C515.549 63.1947 514.566 64.3742 511.708 64.9898C509.613 65.4413 509.307 65.8393 509.539 67.7986C509.788 69.902 509.543 70.1269 506.426 70.6503C503.617 71.1227 503.321 71.3339 504.689 71.8921C507.056 72.858 509.412 72.8265 508.789 71.8371C508.446 71.291 509.01 71.1802 510.399 71.5224C512.142 71.952 512.443 71.8088 512.027 70.7458C511.341 68.9886 513.044 69.0801 514.111 70.8582C514.684 71.812 515.167 71.9843 515.594 71.3849C515.942 70.8962 516.784 70.4707 517.464 70.4392C518.144 70.4076 519.535 70.1908 520.554 69.9586C521.574 69.7256 522.409 69.9174 522.409 70.3841C522.409 70.8517 521.844 71.0208 521.153 70.7603C520.153 70.3841 520.063 70.5904 520.712 71.7813C521.754 73.6929 520.877 74.582 519.236 73.2779C518.219 72.4705 518.097 72.4786 518.612 73.3208C518.97 73.904 518.775 74.9339 518.172 75.6474C517.202 76.7937 517.461 76.8657 520.657 76.3358L524.226 75.7445L523.681 78.1795C523.362 79.6041 523.498 80.8338 524.008 81.1436C524.489 81.4349 524.881 81.0838 524.881 80.3638C524.881 79.6438 525.252 79.2797 525.705 79.5548C526.159 79.8298 526.529 79.7077 526.529 79.2838C526.529 78.8599 527.364 78.5209 528.384 78.5306C532.055 78.5654 534.76 77.9732 534.668 77.1537C534.464 75.31 534.816 74.2964 535.66 74.2964C536.228 74.2964 536.345 75.2113 535.985 76.8245C535.591 78.5824 535.697 79.1843 536.331 78.7992C536.833 78.495 537.276 77.4482 537.314 76.4734C537.374 74.9962 537.502 75.0827 538.086 76.9943C538.924 79.7384 538.346 81.6314 536.843 81.0651C536.244 80.8394 534.165 81.409 532.224 82.3296C530.281 83.251 527.668 84.0042 526.416 84.0042C525.163 84.0042 523.843 84.4596 523.48 85.017C523.117 85.5736 521.767 86.5638 520.478 87.2167C519.189 87.8695 518.542 88.5369 519.04 88.6995C519.539 88.8629 519.747 89.3136 519.503 89.7011C519.259 90.0886 518.422 90.1816 517.643 89.9073C516.865 89.6331 516.503 89.7067 516.838 90.0707C517.174 90.434 517.028 91.2292 516.515 91.8368C516.001 92.4451 515.817 93.1748 516.106 93.4588C516.869 94.2063 520.939 92.2235 520.399 91.3667C520.15 90.9703 520.519 90.4299 521.22 90.1654C521.941 89.8936 522.278 90.0287 521.997 90.4761C521.723 90.9105 521.982 91.1192 522.572 90.9388C523.162 90.7584 524.68 90.3879 525.945 90.1152C527.383 89.8054 528.028 89.2739 527.664 88.6971C527.281 88.0887 527.547 87.9488 528.445 88.2869C529.223 88.5798 529.722 88.4277 529.61 87.9318C529.502 87.4545 530.879 86.5509 532.671 85.9239C534.462 85.2978 536.21 84.3359 536.555 83.7874C536.901 83.2397 537.846 82.7648 538.656 82.7333C540.497 82.6605 544.661 80.71 544.661 79.9196C544.661 79.5952 544.198 79.3808 543.631 79.4423C542.513 79.5645 542.189 79.0322 542.189 77.0801C542.189 76.3868 542.559 76.0438 543.013 76.3188C543.466 76.5939 543.837 76.4216 543.837 75.937C543.837 75.4516 543.266 74.8392 542.567 74.5763C540.376 73.7511 545.419 71.6631 550.43 71.3201C552.923 71.1494 555.437 70.961 556.016 70.9003C557.323 70.7644 556.897 69.2661 555.415 68.7815C554.763 68.568 554.554 68.7929 554.897 69.3373C555.252 69.9004 554.839 70.2515 553.824 70.2515C552.917 70.2515 551.962 69.9125 551.702 69.4983C551.14 68.606 552.343 67.7679 555.993 66.5107C558.177 65.7592 558.672 65.7948 558.672 66.7065C558.672 67.3213 558.23 67.8245 557.69 67.8245C557.15 67.8245 557.382 68.3075 558.205 68.898C559.59 69.8931 559.486 70.0719 556.795 71.325C555.197 72.0693 553.087 72.6784 552.106 72.6784C549.697 72.6784 546.969 74.1896 547.592 75.179C547.87 75.6199 548.763 75.7728 549.578 75.5188C550.461 75.2437 551.245 75.5309 551.518 76.2307C552.022 77.5194 552.905 77.4733 556.611 75.9669C557.971 75.4144 559.799 74.8206 560.672 74.6483C561.545 74.4752 562.523 73.9154 562.846 73.4025C563.173 72.8839 563.895 72.752 564.476 73.104C565.168 73.5238 565.315 73.4122 564.912 72.7706C564.47 72.0701 564.945 71.9422 566.638 72.3071C568.427 72.6914 568.684 72.6072 567.738 71.9471C566.67 71.2028 566.698 71.0839 567.944 71.0726C568.737 71.0661 569.386 70.6721 569.386 70.1973C569.386 69.7014 570.089 69.5525 571.034 69.847C572.069 70.169 572.683 69.9926 572.683 69.3713C572.683 68.7338 573.239 68.877 574.25 69.775C575.825 71.1745 578.413 71.2635 579.386 69.9521C580.122 68.9579 586.365 69.1634 588.116 70.2393C589.379 71.0152 589.317 71.0669 587.666 70.622C586.176 70.2199 585.654 70.4796 585.303 71.7966C585.056 72.727 584.504 73.4874 584.076 73.4874C583.649 73.4874 583.548 73.8806 583.85 74.3619C584.167 74.8659 585.324 75.0131 586.577 74.709C588.332 74.2842 588.554 74.3813 587.724 75.2097C586.326 76.6044 586.428 77.5323 587.978 77.5323C588.685 77.5323 589.034 77.8964 588.754 78.3413C588.474 78.7862 588.801 79.1503 589.481 79.1503C590.161 79.1503 590.968 78.7523 591.274 78.2653C591.581 77.7783 592.716 77.5461 593.795 77.7483C594.876 77.9514 595.759 77.8033 595.759 77.4199C595.759 77.0372 596.13 76.7233 596.583 76.7233C597.037 76.7233 597.408 77.2694 597.408 77.9368C597.408 79.3719 597.169 79.3363 600.504 78.3979C603.562 77.5372 604.035 78.4958 601.767 80.9559C600.571 82.2544 600.535 82.5925 601.533 83.1984C602.18 83.5908 603.093 83.6159 603.561 83.2543C604.03 82.8926 605.896 82.1419 607.71 81.5853C609.523 81.0279 611.359 80.2529 611.789 79.8614C612.821 78.9246 615.539 78.9464 615.539 79.8921C615.539 80.2999 615.076 80.8354 614.509 81.0821C613.943 81.3281 614.221 81.4494 615.127 81.3515C616.034 81.2528 617.021 80.8394 617.321 80.4309C617.621 80.0232 619.012 79.6899 620.412 79.6899C621.811 79.6899 622.957 79.4771 622.956 79.2174C622.956 78.9586 625.274 78.6964 628.107 78.6358C635.008 78.4885 639.44 77.5817 639.44 76.318C639.44 75.7477 640.919 74.7001 642.728 73.9898C644.536 73.2795 647.42 71.2773 649.138 69.5404C651.774 66.874 652.292 65.7697 652.464 62.4513C652.576 60.2897 652.792 57.5205 652.946 56.2965C653.13 54.8242 652.844 54.0718 652.101 54.0718C651.483 54.0718 650.978 54.4577 650.978 54.9285C650.978 55.3993 650.583 55.5458 650.101 55.2529C649.526 54.9042 649.732 54.1187 650.696 52.9805C651.507 52.0235 651.643 51.6958 650.997 52.2516C649.827 53.2612 647.765 53.7199 648.751 52.7524C649.037 52.4708 648.917 51.5906 648.484 50.7946C648.05 49.9994 647.97 49.2284 648.306 49.0812C648.643 48.934 649.7 47.7148 650.655 46.3719C654.048 41.6046 649.873 37.3331 642.759 38.2934C640.48 38.6016 638.616 39.2221 638.616 39.6727C638.616 40.1274 639.258 40.243 640.058 39.9324C640.851 39.6242 642.798 39.214 644.385 39.0207C647.081 38.6914 647.027 38.7521 643.561 39.9526C641.521 40.6597 638.789 41.3926 637.488 41.5827C635.468 41.8772 635.274 41.7526 636.147 40.7187C637.461 39.1647 636.404 39.1906 631.92 40.8231C629.937 41.5455 627.672 42.1142 626.888 42.0883C626.103 42.0616 625.247 42.3812 624.985 42.7978C624.348 43.809 622.133 43.7686 622.133 42.746C622.133 42.3011 622.874 41.9371 623.781 41.9371C624.687 41.9371 625.429 41.6151 625.429 41.2227C625.429 40.0942 622.367 39.604 621.378 40.5747C620.886 41.0569 620.484 41.1758 620.484 40.8393C620.484 40.5027 619.719 40.7535 618.782 41.3975C617.847 42.0406 616.363 42.3828 615.486 42.1579C614.36 41.8691 613.891 42.162 613.891 43.1554C613.891 44.3138 613.673 44.3842 612.655 43.555C611.631 42.721 611.416 42.8083 611.406 44.0631C611.399 44.9586 611.146 45.2223 610.788 44.7094C610.455 44.2321 609.51 43.5979 608.688 43.2994C607.865 43.0017 607.408 42.4168 607.67 42.0002C607.932 41.5835 607.492 39.9518 606.692 38.3735C605.459 35.9425 604.797 35.4927 602.353 35.4231C600.766 35.3778 598.294 35.2775 596.858 35.2006C595.422 35.1238 594.31 35.4247 594.385 35.8697C594.461 36.3146 593.494 36.6091 592.238 36.5241C590.774 36.4246 590.152 36.6851 590.506 37.2482C590.872 37.829 590.321 37.9884 588.877 37.7174C587.676 37.4917 586.693 37.647 586.693 38.062C586.693 38.477 585.859 38.7108 584.839 38.5814C583.819 38.4528 582.451 38.6728 581.797 39.0716C581.024 39.5433 580.492 39.4527 580.275 38.8103C580.037 38.113 579.636 38.0717 578.903 38.6696C577.764 39.5967 574.401 40.2455 568.301 40.7139C565.312 40.9436 563.972 40.6678 562.88 39.5959C560.671 37.4278 558.893 36.9764 550.886 36.5517C546.831 36.3365 542.835 35.805 542.007 35.3697C540.654 34.6586 540.629 34.4532 541.765 33.3384C543.103 32.0246 542.867 31.5254 538.297 26.0122C536.41 23.7357 530.725 23.2309 523.797 24.7267C520.993 25.3319 517.587 26.0098 516.227 26.2347C514.867 26.4588 512.679 26.9895 511.366 27.4134C507.857 28.5451 507.574 28.4214 507.574 25.7574C507.574 24.4226 507.945 23.3304 508.398 23.3304C509.728 23.3304 509.309 19.834 507.762 18.0259C505.34 15.1953 502.228 14.3313 497.892 15.2851C495.775 15.7511 493.565 16.5204 492.983 16.9953C492.4 17.4702 491.179 17.6676 490.27 17.4346C489.361 17.2008 488.618 17.3399 488.618 17.7436C488.618 18.1465 488.039 18.4765 487.333 18.4765C486.609 18.4765 486.292 18.8649 486.609 19.3664C487.016 20.0128 486.707 20.0128 485.474 19.3664C482.995 18.0631 481.441 18.2767 483.309 19.6641C485.179 21.0523 484.617 21.2158 481.706 20.1293C480.169 19.5557 479.725 19.6083 479.995 20.3315C480.195 20.8687 480.003 21.854 479.569 22.5215C478.914 23.5254 478.489 23.5594 477.102 22.7148C475.814 21.9317 475.474 21.9236 475.634 22.6784C475.749 23.2188 475.472 23.7082 475.019 23.7657C474.566 23.8231 473.151 24.2947 471.875 24.8141C469.032 25.9702 468.014 26.0057 468.014 24.9484C468.014 24.5035 467.654 24.1394 467.215 24.1394C466.777 24.1394 466.66 24.7769 466.958 25.5551C467.439 26.8172 467.34 26.8447 466.045 25.8092C464.837 24.844 464.476 24.8319 463.906 25.7364C463.529 26.3342 463.427 27.4029 463.679 28.1107C464.001 29.02 463.867 29.1567 463.22 28.5783C462.551 27.9789 462.593 26.9353 463.376 24.6992C464.29 22.0887 464.354 20.067 463.715 13.9017C463.662 13.388 463.124 13.1542 462.519 13.3816C461.915 13.6097 461.42 13.4819 461.42 13.0976C461.42 9.9984 443.17 9.8455 437.362 12.8962C436.51 13.3444 434.342 13.7683 432.545 13.8386C430.748 13.909 429.278 14.2925 429.278 14.6897C429.278 15.0877 428.708 15.1985 428.01 14.9364C427.273 14.6581 426.536 14.989 426.248 15.7268C425.895 16.6288 425.579 16.7202 425.153 16.0439C424.628 15.2091 417.173 17.0414 409.498 19.8923C408.818 20.1447 407.973 20.2903 407.621 20.215C407.268 20.1406 406.766 20.6268 406.504 21.2958C406.243 21.9649 405.697 22.3111 405.291 22.0644C404.885 21.8185 404.553 21.9115 404.552 22.2715C404.552 22.6315 403.61 22.9793 402.46 23.0449C401.308 23.1096 399.472 24.1111 398.378 25.2696C397.285 26.428 395.838 27.3754 395.163 27.3754C394.488 27.3754 393.691 27.7645 393.392 28.2393C393.093 28.715 392.407 28.9375 391.867 28.7336C391.327 28.5306 390.197 28.8582 389.356 29.4617C388.515 30.0652 387.511 30.3678 387.124 30.1332C386.738 29.8986 386.421 30.0927 386.421 30.5636C386.421 31.0344 386.051 31.4203 385.597 31.4203C385.144 31.4203 384.773 30.5183 384.773 29.4164C384.773 28.1932 384.002 26.9167 382.791 26.1376C380.694 24.789 376.531 24.8028 375.514 26.1619C375.181 26.6068 374.897 26.2428 374.883 25.3529C374.863 24.0108 374.722 23.942 374.059 24.9484C373.527 25.7574 373.256 25.8245 373.247 25.1507C373.241 24.5949 372.678 24.1394 371.999 24.1394C371.319 24.1394 370.762 23.8077 370.762 23.4016C370.762 22.9963 370.113 22.7868 369.32 22.9357C368.526 23.0845 367.6 23.2342 367.26 23.2681C366.919 23.3029 366.642 23.8158 366.642 24.4088C366.642 25.0026 366.178 25.4912 365.611 25.4953C365.045 25.4993 363.654 25.7614 362.521 26.0769C360.499 26.6392 360.491 26.6246 362.109 25.2858C363.57 24.0763 363.586 23.9801 362.247 24.4347C361.417 24.717 360.408 24.9484 360.007 24.9484C359.605 24.9484 359.489 25.4945 359.75 26.1619C360.011 26.8293 359.814 27.3754 359.312 27.3754C358.81 27.3754 358.4 26.9417 358.4 26.4119C358.4 25.8294 357.992 25.9507 357.37 26.7177C356.241 28.1083 346.215 31.6241 345.176 30.9931C344.821 30.7779 344.401 30.981 344.243 31.4445C344.086 31.9081 341.736 32.4533 339.022 32.6564C335.785 32.8983 333.752 33.4727 333.112 34.3261C332.575 35.0421 331.741 35.3875 331.258 35.0939C330.774 34.801 330.378 34.9466 330.378 35.4175C330.378 35.8883 330.049 36.2742 329.647 36.2742C328.644 36.2742 327.935 31.2164 328.792 30.1647C330.031 28.643 328.683 26.1004 325.839 24.5973C324.309 23.7883 322.873 22.6549 322.648 22.0781C322.418 21.4924 321.528 21.2109 320.632 21.4415C319.748 21.668 318.776 21.4568 318.472 20.9723C317.782 19.8777 310.319 20.5467 304.005 22.2699C296.628 24.2834 288.932 26.6877 286.285 27.8065C283.34 29.0508 274.434 32.2293 273.892 32.2293C273.682 32.2293 273.511 31.6832 273.511 31.0158C273.511 30.3484 273.906 29.8023 274.39 29.8023C274.913 29.8023 275.044 29.1033 274.714 28.0832C274.378 27.0421 274.477 26.5567 274.965 26.8528C276.292 27.6585 279.272 24.6264 278.444 23.3126C278.032 22.6574 278.042 21.7974 278.468 21.2934C280.014 19.4651 278.266 16.721 274.562 15.1629C272.549 14.3159 270.155 13.6226 269.243 13.6226C266.327 13.6226 259.05 16.0213 253.213 18.9069C250.099 20.4472 247.107 21.7084 246.566 21.71C246.026 21.7117 244.245 22.4875 242.61 23.4348L239.635 25.1571L240.211 22.9049C240.602 21.3776 240.417 20.3663 239.635 19.7661C239.002 19.2791 238.467 17.4273 238.446 15.6508C238.384 10.3349 234.323 9.40056 224.885 12.5289C221.487 13.655 219.359 14.4122 218.292 14.8749C218.065 14.9736 217.03 15.3239 215.992 15.6548C214.953 15.9849 214.24 16.6588 214.408 17.1522C214.85 18.4539 208.206 22.4592 207.06 21.5814C206.518 21.1656 205.229 21.2052 203.97 21.6753C202.781 22.1186 201.809 22.2521 201.809 21.9713C201.809 21.6914 201.153 22.0442 200.351 22.7561C199.55 23.468 197.782 24.2422 196.422 24.4776C195.062 24.713 191.616 26.0146 188.764 27.3713C185.911 28.7272 183.261 29.6454 182.873 29.4099C182.486 29.1753 181.981 29.4407 181.75 29.9997C181.422 30.7925 181.157 30.7731 180.543 29.9131C179.878 28.982 179.686 28.982 179.309 29.9131C179.005 30.6623 178.842 30.5474 178.797 29.5523C178.762 28.7474 178.416 28.2806 178.028 28.516C177.642 28.7506 176.911 28.0509 176.405 26.9612C175.632 25.2963 175.086 25.0576 172.99 25.4686C171.53 25.7558 169.998 25.5551 169.299 24.9848C167.599 23.6006 163.723 25.564 162.984 28.1843C162.67 29.2967 162.376 29.7157 162.331 29.1155C162.27 28.3089 161.451 28.4861 159.187 29.7983L156.124 31.5716L154.654 29.7877C153.691 28.6204 153.183 26.6408 153.183 24.0496C153.183 21.8743 152.824 20.0945 152.386 20.0945C151.948 20.0945 150.257 18.7864 148.628 17.1878C146.174 14.7795 145.287 14.3758 143.45 14.8361C142.23 15.1419 140.492 15.5367 139.587 15.7131C138.682 15.8894 137.816 16.4031 137.662 16.8553C137.509 17.3076 137.107 17.5106 136.77 17.3059C136.111 16.9063 129.505 18.6958 127.06 19.9359C126.243 20.351 124.184 20.9367 122.486 21.2376C119.62 21.7456 119.413 21.6518 119.602 19.9287C119.734 18.712 119.414 18.1529 118.673 18.3075C117.967 18.4539 117.719 18.089 118.013 17.3375C118.354 16.4646 118.097 16.2737 117.084 16.6466C115.861 17.0956 115.828 16.988 116.814 15.7964C117.794 14.6145 117.755 14.4316 116.52 14.4316C115.582 14.4316 115.26 14.0101 115.577 13.1987C116.37 11.1706 115.158 4.72382 113.983 4.72382C113.28 4.72382 113.025 3.89866 113.232 2.29687C113.477 0.39091 113.243 -0.098525 112.141 0.0155417C111.37 0.095631 108.977 0.297877 106.824 0.464528ZM457.506 11.7312C456.939 11.9561 456.012 11.9561 455.445 11.7312C454.879 11.5071 455.342 11.3235 456.475 11.3235C457.609 11.3235 458.073 11.5071 457.506 11.7312ZM434.893 12.5572C435.487 12.791 436.199 12.7619 436.472 12.4933C436.746 12.2247 436.26 12.0338 435.391 12.0686C434.431 12.1074 434.235 12.2991 434.893 12.5572ZM450.706 16.0496C450.026 16.4808 449.099 16.8335 448.646 16.8335C448.193 16.8335 448.378 16.4808 449.058 16.0496C449.738 15.6184 450.665 15.2657 451.118 15.2657C451.572 15.2657 451.386 15.6184 450.706 16.0496ZM438.344 20.9035C437.664 21.3347 436.366 21.6567 435.459 21.6194C434.101 21.5636 434.174 21.4374 435.871 20.9035C438.786 19.9877 439.788 19.9877 438.344 20.9035ZM138.348 25.2299C138.348 25.8302 136.851 26.983 135.021 27.7928C132.705 28.8186 132.017 29.4666 132.754 29.9261C133.338 30.2893 133.444 30.5967 132.991 30.6097C132.538 30.6226 131.368 30.8435 130.391 31.1007C129.026 31.4607 128.645 31.2285 128.743 30.0976C128.821 29.1851 130.592 27.775 133.403 26.386C138.705 23.7657 138.348 23.849 138.348 25.2299ZM428.193 27.5274C427.93 28.1722 427.734 27.9805 427.695 27.038C427.659 26.1853 427.854 25.708 428.127 25.9766C428.401 26.2452 428.431 26.9434 428.193 27.5274ZM418.564 27.3754C418.564 27.8203 418.171 28.1843 417.691 28.1843C417.211 28.1843 417.047 27.8203 417.328 27.3754C417.608 26.9304 418 26.5664 418.2 26.5664C418.401 26.5664 418.564 26.9304 418.564 27.3754ZM416.091 28.1843C416.091 28.6293 415.513 28.9933 414.806 28.9933C414.1 28.9933 413.751 28.6293 414.031 28.1843C414.311 27.7394 414.889 27.3754 415.316 27.3754C415.743 27.3754 416.091 27.7394 416.091 28.1843ZM444.937 28.1843C444.937 28.6293 444.544 28.9933 444.064 28.9933C443.585 28.9933 443.421 28.6293 443.701 28.1843C443.981 27.7394 444.373 27.3754 444.574 27.3754C444.774 27.3754 444.937 27.7394 444.937 28.1843ZM461.03 29.6462C460.777 29.8953 460.112 29.647 459.552 29.0936C458.744 28.2944 458.839 28.2021 460.014 28.6406C460.826 28.9448 461.284 29.397 461.03 29.6462ZM412.795 29.3873C412.795 29.7384 407.288 32.2293 406.513 32.2293C405.378 32.2293 406.536 30.4268 408.056 29.8274C410.1 29.0208 412.795 28.7709 412.795 29.3873ZM420.212 29.8023C420.212 30.2472 419.819 30.6113 419.339 30.6113C418.86 30.6113 418.696 30.2472 418.976 29.8023C419.256 29.3574 419.648 28.9933 419.849 28.9933C420.049 28.9933 420.212 29.3574 420.212 29.8023ZM309.362 31.4437C308.002 32.3409 306.24 32.9185 305.446 32.7276C304.652 32.5367 304.185 32.6685 304.406 33.0221C304.629 33.3748 304.166 33.8828 303.378 34.1506C298.417 35.8389 294.436 37.0605 293.86 37.071C292.247 37.101 294.367 35.5396 296.592 35.0599C297.944 34.7678 299.33 34.0745 299.673 33.5188C300.262 32.5617 307.935 30.0021 310.598 29.8727C311.278 29.8403 310.722 30.5466 309.362 31.4437ZM405.627 33.5673C405.395 34.1611 404.859 34.437 404.436 34.1805C404.014 33.9249 402.148 34.4928 400.29 35.4433C398.432 36.3939 396.391 36.9756 395.754 36.7361C395.009 36.4554 394.682 36.7693 394.836 37.6187C394.967 38.3444 394.661 39.0805 394.156 39.2553C393.649 39.43 393.279 38.7933 393.332 37.8331C393.405 36.4902 394.497 35.7006 398.13 34.3642C400.717 33.4128 403.292 32.1807 403.853 31.6274C405.062 30.4349 406.315 31.8062 405.627 33.5673ZM407.31 36.7135C407.041 37.4003 406.645 37.7886 406.429 37.5766C406.213 37.3647 406.281 36.8024 406.58 36.3284C407.392 35.0372 407.867 35.288 407.31 36.7135ZM297.751 37.5726C298.475 37.8444 298.788 38.4722 298.459 38.9883C298.134 39.498 297.858 40.4291 297.845 41.0585C297.834 41.6879 296.156 42.7428 294.115 43.4046C292.075 44.0655 290.18 44.9473 289.902 45.3631C289.625 45.7797 289.157 46.0799 288.863 46.0313C288.568 45.9828 286.302 46.8524 283.826 47.964C281.35 49.0755 278.383 50.217 277.231 50.5009C276.08 50.7841 274.783 51.6133 274.35 52.3422C273.728 53.3866 273.555 53.419 273.536 52.4943C273.517 51.5818 273.291 51.5373 272.522 52.292C271.978 52.826 270.772 53.2483 269.843 53.2313C268.604 53.2078 268.923 52.8511 271.038 51.8916C272.625 51.1716 274.211 50.6433 274.564 50.7169C274.917 50.7906 275.431 50.2736 275.706 49.5682C276.186 48.3418 279.836 46.3865 281.134 46.6607C281.475 46.7319 281.753 46.4269 281.753 45.982C281.753 45.537 282.449 45.173 283.3 45.173C285.047 45.173 287.236 43.0049 286.358 42.1433C286.042 41.8335 285.489 42.0471 285.13 42.6182C284.771 43.1886 283.307 43.6885 281.878 43.729C280.45 43.7686 279.28 44.1707 279.28 44.6221C279.28 45.0735 279.079 45.245 278.833 45.0039C278.094 44.2791 281.255 38.7424 282.419 38.7213C283.013 38.71 283.285 39.0401 283.024 39.4543C282.763 39.8685 282.936 40.4412 283.407 40.7276C283.88 41.014 284.213 40.9485 284.148 40.5812C283.821 38.7359 284.471 38.2157 287.097 38.2157C288.877 38.2157 289.583 38.4689 288.952 38.8823C287.542 39.8038 291.516 39.176 294.115 38.0661C295.248 37.5815 296.238 37.1624 296.314 37.1341C296.391 37.1066 297.037 37.3032 297.751 37.5726ZM632.585 42.8981C632.322 43.5429 632.127 43.3512 632.088 42.4087C632.052 41.556 632.247 41.0787 632.52 41.3473C632.794 41.6159 632.824 42.314 632.585 42.8981ZM391.366 43.555C391.366 44 390.996 44.364 390.542 44.364C390.089 44.364 389.718 44 389.718 43.555C389.718 43.1101 390.089 42.746 390.542 42.746C390.996 42.746 391.366 43.1101 391.366 43.555ZM403.186 44.4117C402.536 45.05 390.087 50.0099 389.1 50.0237C388.987 50.0253 388.894 49.6871 388.894 49.2721C388.894 48.8571 389.728 48.2609 390.748 47.9478C391.769 47.6339 394.457 46.5636 396.723 45.5694C401.78 43.3512 403.213 42.8779 403.674 43.2751C403.871 43.4434 403.651 43.9555 403.186 44.4117ZM547.134 43.555C547.134 44 546.577 44.364 545.897 44.364C545.217 44.364 544.661 44 544.661 43.555C544.661 43.1101 545.217 42.746 545.897 42.746C546.577 42.746 547.134 43.1101 547.134 43.555ZM388.894 44.364C388.894 44.8089 388.523 45.173 388.07 45.173C387.616 45.173 387.246 44.8089 387.246 44.364C387.246 43.9191 387.616 43.555 388.07 43.555C388.523 43.555 388.894 43.9191 388.894 44.364ZM48.931 46.7861C47.2811 48.5748 46.0415 48.8919 46.0415 47.5239C46.0415 47.0377 46.7833 46.4488 47.6899 46.2166C48.5964 45.9836 49.3382 45.4108 49.3382 44.944C49.3382 44.4765 49.583 44.3349 49.883 44.6285C50.1821 44.9222 49.7536 45.893 48.931 46.7861ZM40.2724 47.9567C40.2724 48.1533 39.9015 48.5384 39.4482 48.8134C38.9949 49.0885 38.624 48.9275 38.624 48.4566C38.624 47.9858 38.9949 47.5999 39.4482 47.5999C39.9015 47.5999 40.2724 47.7601 40.2724 47.9567ZM44.1056 50.4702C42.8289 51.8317 42.4721 51.3366 43.1718 49.1718C43.5896 47.8798 43.93 47.6727 44.4014 48.4219C44.7608 48.993 44.6281 49.912 44.1056 50.4702ZM388.07 50.0269C388.07 50.4718 387.677 50.8359 387.197 50.8359C386.717 50.8359 386.553 50.4718 386.833 50.0269C387.114 49.5819 387.506 49.2179 387.706 49.2179C387.907 49.2179 388.07 49.5819 388.07 50.0269ZM385.597 50.8359C385.597 51.2808 385.434 51.6449 385.234 51.6449C385.034 51.6449 384.641 51.2808 384.361 50.8359C384.081 50.3909 384.245 50.0269 384.724 50.0269C385.204 50.0269 385.597 50.3909 385.597 50.8359ZM39.8603 52.4538C37.5922 53.4109 36.7853 53.4109 37.3878 52.4538C37.668 52.0089 38.7098 51.6707 39.7029 51.7015C41.4435 51.7565 41.4493 51.7832 39.8603 52.4538ZM382.757 52.3746C381.266 52.9473 381.296 53.0331 383.169 53.5783C385.09 54.139 385.108 54.1988 383.537 54.8711C381.381 55.7933 379.929 55.8588 381.359 54.9698C383.473 53.6536 380.812 53.1924 378.019 54.3897C376.521 55.0321 375.852 55.5927 376.531 55.6364C377.63 55.7059 377.63 55.8014 376.531 56.4988C374.837 57.5739 374.019 57.5011 374.265 56.2965C374.525 55.0232 380.514 51.8269 382.713 51.788C384.321 51.7589 384.322 51.7735 382.757 52.3746ZM267.33 55.6898C267.61 56.1347 267.468 56.4988 267.015 56.4988C266.562 56.4988 265.962 56.1347 265.681 55.6898C265.401 55.2448 265.543 54.8808 265.996 54.8808C266.449 54.8808 267.049 55.2448 267.33 55.6898ZM293.569 59.7857C292.935 60.4078 292.561 60.0413 292.261 58.5026C291.878 56.5352 291.955 56.4591 293.149 57.6305C294.083 58.5479 294.203 59.1627 293.569 59.7857ZM515.403 57.3077C515.123 57.7527 514.523 58.1167 514.07 58.1167C513.616 58.1167 513.475 57.7527 513.755 57.3077C514.035 56.8628 514.635 56.4988 515.088 56.4988C515.542 56.4988 515.683 56.8628 515.403 57.3077ZM385.597 58.5212C385.597 59.1886 385.957 59.7347 386.396 59.7347C386.834 59.7347 386.98 59.1886 386.72 58.5212C386.459 57.8538 386.099 57.3077 385.921 57.3077C385.743 57.3077 385.597 57.8538 385.597 58.5212ZM388.651 57.8489C388.36 58.3101 388.655 59.3779 389.306 60.2225C390.579 61.8736 390.812 61.1043 389.802 58.5746C389.442 57.6726 388.955 57.3652 388.651 57.8489ZM29.5582 59.7347C29.5582 60.1796 29.1651 60.5437 28.6854 60.5437C28.2058 60.5437 28.0418 60.1796 28.322 59.7347C28.6022 59.2897 28.9945 58.9257 29.1948 58.9257C29.395 58.9257 29.5582 59.2897 29.5582 59.7347ZM105.35 60.1756C104.811 60.8131 104.041 61.135 103.64 60.8915C103.238 60.648 102.909 60.9943 102.909 61.6617C102.909 62.9698 101.43 64.2156 100.712 63.5118C99.932 62.7449 103.174 59.2501 104.776 59.132C106.035 59.039 106.145 59.2372 105.35 60.1756ZM322.961 60.6173C323.974 61.3211 323.995 61.5549 323.074 61.9165C322.125 62.2886 322.125 62.478 323.074 63.13C324.022 63.7828 324.022 63.9713 323.074 64.3435C322.199 64.6865 322.177 64.9219 322.973 65.4049C324.226 66.1653 323.317 67.8245 321.649 67.8245C320.98 67.8245 318.541 68.7662 316.227 69.9174C312.858 71.5919 311.881 71.7942 311.322 70.9286C310.8 70.1204 310.621 70.1026 310.611 70.8582C310.604 71.4148 310.042 71.8694 309.362 71.8694C308.682 71.8694 308.126 72.4398 308.126 73.1371C308.126 74.065 308.624 74.2681 309.98 73.8935C311.432 73.4923 311.566 73.5659 310.598 74.2309C309.918 74.6984 308.677 75.086 307.841 75.0932C307.004 75.0997 305.15 75.7032 303.72 76.4345C297.693 79.5159 296.588 79.8112 296.588 78.3413C296.588 77.8964 297.166 77.5323 297.872 77.5323C298.579 77.5323 298.953 77.2079 298.704 76.8115C298.219 76.043 301.685 73.4874 303.211 73.4874C303.712 73.4874 304.679 72.9413 305.359 72.2739C306.039 71.6065 307.35 71.0605 308.273 71.0605C309.28 71.0605 309.791 70.6543 309.553 70.0452C309.335 69.4862 309.641 68.585 310.233 68.0421C311.09 67.2574 311.385 67.3408 311.682 68.4515C311.946 69.436 312.083 69.2888 312.151 67.9507C312.21 66.7842 312.88 65.8927 313.895 65.6322C314.802 65.3992 315.543 64.8264 315.543 64.3596C315.543 63.8921 315.773 63.7351 316.053 64.011C316.681 64.6266 318.329 63.0612 319.067 61.1504C319.684 59.5502 321.137 59.3512 322.961 60.6173ZM367.466 61.3527C367.466 61.7976 368.044 62.1616 368.751 62.1616C369.457 62.1616 369.806 61.7976 369.526 61.3527C369.246 60.9077 368.668 60.5437 368.241 60.5437C367.814 60.5437 367.466 60.9077 367.466 61.3527ZM384.443 61.838C384.15 62.588 384.096 63.384 384.322 63.6065C384.549 63.829 384.974 63.397 385.268 62.647C385.561 61.8971 385.615 61.1011 385.389 60.8786C385.162 60.6561 384.737 61.0881 384.443 61.838ZM486.726 61.69C486.455 62.5127 481.522 65.2738 480.17 65.3587C478.477 65.4655 479.864 63.5887 482.025 62.8493C483.384 62.3841 484.497 61.7353 484.497 61.4085C484.497 61.0808 485.064 60.8131 485.756 60.8131C486.449 60.8131 486.885 61.2078 486.726 61.69ZM505.56 63.4414C503.754 64.7383 502.629 64.9154 502.629 63.9034C502.629 63.0871 506.158 61.3915 506.748 61.9238C506.974 62.1277 506.44 62.8104 505.56 63.4414ZM578.452 63.7796C578.452 64.2245 578.081 64.5886 577.628 64.5886C577.174 64.5886 576.803 64.2245 576.803 63.7796C576.803 63.3347 577.174 62.9706 577.628 62.9706C578.081 62.9706 578.452 63.3347 578.452 63.7796ZM570.472 64.9017C570.786 65.7042 570.401 65.9169 569.118 65.6508C567.336 65.2795 567.335 65.2859 568.974 66.6596C570.438 67.8876 570.453 67.9847 569.112 67.5292C568.282 67.2469 567.249 67.0155 566.817 67.0155C566.351 67.0155 566.39 66.357 566.914 65.3976C567.931 63.5304 569.833 63.2651 570.472 64.9017ZM574.331 64.5886C574.331 65.0335 573.96 65.3976 573.507 65.3976C573.054 65.3976 572.683 65.0335 572.683 64.5886C572.683 64.1436 573.054 63.7796 573.507 63.7796C573.96 63.7796 574.331 64.1436 574.331 64.5886ZM319.252 66.2066C318.972 66.6515 319.114 67.0155 319.567 67.0155C320.02 67.0155 320.62 66.6515 320.9 66.2066C321.181 65.7616 321.039 65.3976 320.586 65.3976C320.132 65.3976 319.532 65.7616 319.252 66.2066ZM352.631 66.2066C352.631 66.6515 352.467 67.0155 352.267 67.0155C352.067 67.0155 351.675 66.6515 351.394 66.2066C351.114 65.7616 351.278 65.3976 351.758 65.3976C352.238 65.3976 352.631 65.7616 352.631 66.2066ZM378.18 66.2066C377.437 66.6774 377.335 66.9953 377.925 67.0034C378.465 67.0099 379.136 66.6515 379.416 66.2066C380.048 65.2018 379.763 65.2018 378.18 66.2066ZM515.815 66.1119C515.815 66.9573 511.608 67.8674 510.581 67.2445C510.19 67.0074 510.373 66.5002 510.988 66.1176C512.458 65.2042 515.815 65.2002 515.815 66.1119ZM585.045 66.611C585.045 67.2785 584.674 67.8245 584.221 67.8245C583.768 67.8245 583.397 67.2785 583.397 66.611C583.397 65.9436 583.768 65.3976 584.221 65.3976C584.674 65.3976 585.045 65.9436 585.045 66.611ZM520.76 66.9524C520.76 67.8464 515.083 69.8033 514.409 69.1415C514.15 68.8867 514.825 68.3568 515.907 67.9637C516.99 67.5697 518.432 67.0422 519.112 66.7915C519.792 66.5399 520.441 66.3052 520.554 66.2705C520.668 66.2357 520.76 66.5423 520.76 66.9524ZM581.996 67.4969C581.708 68.7702 576.803 69.3891 576.803 68.1522C576.803 67.5195 577.319 67.2607 578.04 67.5317C578.72 67.7881 579.276 67.6271 579.276 67.1733C579.276 66.7203 579.925 66.4436 580.718 66.5576C581.511 66.6717 582.086 67.0948 581.996 67.4969ZM314.315 67.8375C314.6 68.2897 315.178 68.4507 315.6 68.1942C316.743 67.5009 316.531 67.0155 315.083 67.0155C314.376 67.0155 314.031 67.3852 314.315 67.8375ZM373.235 68.2962C372.085 68.9223 371.721 69.4126 372.411 69.4045C373.091 69.3972 374.367 68.8568 375.247 68.2031C377.23 66.7308 376.006 66.7874 373.235 68.2962ZM205.957 70.8404C204.876 72.0345 204.906 72.1178 206.23 71.6187C207.045 71.312 208.331 71.0548 209.088 71.0483C210.276 71.037 210.295 70.9294 209.226 70.2515C207.605 69.2233 207.383 69.2629 205.957 70.8404ZM170.267 70.7401C169.993 71.0087 169.282 71.0378 168.688 70.804C168.03 70.5459 168.226 70.3542 169.186 70.3154C170.054 70.2806 170.541 70.4715 170.267 70.7401ZM303.571 71.3396C302.676 71.9374 301.203 72.6242 300.296 72.8653C299.39 73.1064 297.906 73.5319 297 73.811C296.093 74.0901 297.206 73.4259 299.472 72.3346C304.008 70.1512 306.109 69.6407 303.571 71.3396ZM26.2616 71.3662C26.2616 71.5337 25.6121 72.1712 24.8193 72.782C23.5122 73.7875 23.4833 73.7592 24.5078 72.4762C25.5849 71.1284 26.2616 70.7005 26.2616 71.3662ZM104.145 72.6784C104.425 73.1234 104.818 73.4874 105.018 73.4874C105.218 73.4874 105.381 73.1234 105.381 72.6784C105.381 72.2335 104.988 71.8694 104.509 71.8694C104.029 71.8694 103.865 72.2335 104.145 72.6784ZM578.452 72.6784C577.709 73.1492 577.607 73.4672 578.197 73.4753C578.737 73.4817 579.408 73.1234 579.688 72.6784C580.32 71.6737 580.035 71.6737 578.452 72.6784ZM245.91 73.4745C245.625 73.9267 244.598 74.2964 243.628 74.2964C242.418 74.2964 242.13 74.5585 242.711 75.1288C243.293 75.7 244.271 75.5997 245.822 74.8093C247.067 74.1758 247.712 73.4308 247.256 73.1549C246.801 72.8782 246.195 73.0222 245.91 73.4745ZM317.814 74.2236C315.397 75.0188 313.926 75.9734 313.964 76.7233C314.005 77.5517 314.157 77.6165 314.441 76.9256C314.67 76.3698 315.525 75.9144 316.342 75.9144C318.369 75.9144 323.344 73.8029 322.447 73.3232C322.049 73.1104 319.965 73.5157 317.814 74.2236ZM341.917 74.2964C338.158 76.3164 336.668 76.3561 339.856 74.3514C341.216 73.4963 342.885 72.7852 343.565 72.7715C344.245 72.7577 343.503 73.4437 341.917 74.2964ZM416.091 73.4874C415.411 73.9186 414.299 74.2519 413.619 74.2268C412.804 74.1977 412.944 73.9461 414.031 73.4874C416.297 72.532 417.598 72.532 416.091 73.4874ZM500.623 73.5715C501.042 74.2414 497.15 75.9144 495.172 75.9144C494.287 75.9144 493.563 76.2371 493.563 76.6311C493.563 77.0251 492.265 77.953 490.678 78.6916C487.14 80.3395 486.959 81.0765 490.266 80.3638C493.352 79.6988 493.437 80.3443 490.472 81.9235L488.206 83.1305L491.032 83.1628C494.897 83.2073 499.33 81.5206 499.344 79.9989C499.355 78.9982 499.498 78.9642 500.058 79.8315C500.572 80.6267 500.867 80.367 501.159 78.8615C501.379 77.7313 501.17 76.424 500.693 75.9556C500.087 75.361 500.124 75.1054 500.815 75.1054C501.359 75.1054 501.804 75.3918 501.804 75.742C501.804 76.0923 502.546 76.4337 503.453 76.5009C505.481 76.6505 505.647 75.3529 503.659 74.8837C502.47 74.6022 502.578 74.387 504.277 73.6541C506.223 72.8143 506.17 72.7739 503.327 72.9235C501.672 73.0117 500.454 73.3029 500.623 73.5715ZM514.013 73.231C514.607 73.4648 515.318 73.4356 515.592 73.167C515.866 72.8985 515.379 72.7075 514.511 72.7423C513.55 72.7812 513.355 72.9729 514.013 73.231ZM20.265 75.0892C20.4158 77.0607 19.0221 78.0306 17.7834 76.8148C17.1101 76.1538 17.1422 75.9144 17.9037 75.9144C18.474 75.9144 18.732 75.581 18.4757 75.1741C18.2194 74.7672 18.4757 74.2503 19.0452 74.0246C19.6147 73.7997 20.0944 73.5861 20.1108 73.5513C20.1281 73.5165 20.1974 74.2082 20.265 75.0892ZM35.2153 76.2671C33.5661 77.7726 32.0192 79.4917 31.7769 80.0879C31.5049 80.7585 31.3121 80.5644 31.2717 79.579C31.2362 78.7029 32.4115 76.9741 33.8851 75.7388C37.696 72.5409 38.8111 72.9842 35.2153 76.2671ZM41.5086 74.2964C41.2284 74.7413 40.5575 75.0997 40.0177 75.0932C39.4276 75.0851 39.5298 74.7672 40.2724 74.2964C41.8556 73.2916 42.1408 73.2916 41.5086 74.2964ZM14.7398 76.2994C13.8975 77.2953 13.9016 77.5323 14.7595 77.5323C15.3439 77.5323 15.6282 77.7232 15.3908 77.9562C15.1535 78.1884 14.3334 78.1439 13.5694 77.8559C12.2681 77.3657 12.2689 77.2354 13.5835 75.8092C15.2244 74.0302 16.2801 74.4776 14.7398 76.2994ZM355.704 74.785C355.43 75.0536 354.719 75.0827 354.125 74.8489C353.467 74.5909 353.663 74.3991 354.623 74.3603C355.491 74.3255 355.978 74.5164 355.704 74.785ZM544.898 76.0406C544.959 76.8382 545.512 77.6796 546.128 77.9117C546.82 78.1722 547.05 78.9432 546.731 79.9293C546.253 81.4098 546.412 81.4607 548.941 80.6315C553.324 79.1956 553.323 78.6018 548.934 76.5397C545.158 74.7664 544.796 74.7211 544.898 76.0406ZM336.147 76.7233C336.147 77.1683 335.754 77.5323 335.275 77.5323C334.795 77.5323 334.631 77.1683 334.911 76.7233C335.191 76.2784 335.584 75.9144 335.784 75.9144C335.984 75.9144 336.147 76.2784 336.147 76.7233ZM531.474 76.7233C531.474 77.1683 531.104 77.5323 530.65 77.5323C530.197 77.5323 529.826 77.1683 529.826 76.7233C529.826 76.2784 530.197 75.9144 530.65 75.9144C531.104 75.9144 531.474 76.2784 531.474 76.7233ZM541.364 77.5323C541.364 77.9773 540.994 78.3413 540.54 78.3413C540.087 78.3413 539.716 77.9773 539.716 77.5323C539.716 77.0874 540.087 76.7233 540.54 76.7233C540.994 76.7233 541.364 77.0874 541.364 77.5323ZM119.114 80.1615C118.885 80.7181 118.698 80.2626 118.698 79.1503C118.698 78.0379 118.885 77.5833 119.114 78.1391C119.343 78.6956 119.343 79.6057 119.114 80.1615ZM193.567 78.3413C193.567 78.7862 193.174 79.1503 192.694 79.1503C192.215 79.1503 192.05 78.7862 192.331 78.3413C192.611 77.8964 193.003 77.5323 193.204 77.5323C193.404 77.5323 193.567 77.8964 193.567 78.3413ZM550.018 78.3413C549.738 78.7862 549.138 79.1503 548.685 79.1503C548.231 79.1503 548.09 78.7862 548.37 78.3413C548.65 77.8964 549.25 77.5323 549.703 77.5323C550.157 77.5323 550.298 77.8964 550.018 78.3413ZM22.5784 79.9188C22.2751 80.4002 21.7221 80.6097 21.3496 80.384C20.977 80.1583 20.0672 80.8799 19.3271 81.989C17.8881 84.145 16.3716 84.6562 16.3716 82.9857C16.3716 82.0003 18.7732 80.0887 21.3166 79.05C22.8339 78.4295 23.3094 78.7571 22.5784 79.9188ZM230.654 79.1503C230.654 79.5952 230.491 79.9593 230.291 79.9593C230.091 79.9593 229.698 79.5952 229.418 79.1503C229.138 78.7053 229.302 78.3413 229.782 78.3413C230.261 78.3413 230.654 78.7053 230.654 79.1503ZM332.851 79.507C332.851 80.1486 332.48 80.8977 332.027 81.1727C331.573 81.4478 331.202 81.4988 331.202 81.2868C331.202 81.0741 330.977 80.3249 330.702 79.6211C330.374 78.7814 330.657 78.3413 331.526 78.3413C332.255 78.3413 332.851 78.8655 332.851 79.507ZM5.63191 81.9817C5.63191 82.4267 5.27258 82.2447 4.8333 81.5772C4.39402 80.9098 4.03468 79.9997 4.03468 79.5548C4.03468 79.1098 4.39402 79.2919 4.8333 79.9593C5.27258 80.6267 5.63191 81.5368 5.63191 81.9817ZM30.3824 79.8695C30.3824 80.2651 29.6209 81.4486 28.6904 82.4987L26.9984 84.4087L27.5654 82.3862C27.8769 81.2739 28.5453 80.096 29.0514 79.7692C30.2448 78.9974 30.3824 79.0079 30.3824 79.8695ZM291.773 81.5772C291.773 82.6896 291.96 83.1451 292.188 82.5885C292.417 82.0327 292.417 81.1226 292.188 80.566C291.96 80.0102 291.773 80.4649 291.773 81.5772ZM228.182 81.5772C228.182 82.0222 227.811 82.3862 227.358 82.3862C226.904 82.3862 226.534 82.0222 226.534 81.5772C226.534 81.1323 226.904 80.7683 227.358 80.7683C227.811 80.7683 228.182 81.1323 228.182 81.5772ZM303.593 81.5772C303.313 82.0222 303.477 82.3862 303.956 82.3862C304.436 82.3862 304.829 82.0222 304.829 81.5772C304.829 81.1323 304.666 80.7683 304.466 80.7683C304.265 80.7683 303.873 81.1323 303.593 81.5772ZM431.75 81.5772C431.75 82.0222 431.357 82.3862 430.878 82.3862C430.398 82.3862 430.234 82.0222 430.514 81.5772C430.794 81.1323 431.187 80.7683 431.387 80.7683C431.587 80.7683 431.75 81.1323 431.75 81.5772ZM24.6833 82.7478C25.0979 82.4962 25.4374 82.819 25.4374 83.4654C25.4374 84.1118 24.9273 84.8318 24.3042 85.0672C23.5146 85.3641 23.1759 84.8382 23.1874 83.3335C23.1965 82.1451 23.3671 81.6298 23.5666 82.1888C23.7668 82.7478 24.2687 82.9994 24.6833 82.7478ZM118.289 84.2064C118.061 84.763 117.874 84.3076 117.874 83.1952C117.874 82.0828 118.061 81.6282 118.289 82.184C118.519 82.7406 118.519 83.6507 118.289 84.2064ZM427.572 84.2542C427.516 85.9627 427.489 85.9684 426.806 84.4087C425.831 82.1824 425.831 81.3904 426.806 81.9817C427.259 82.2568 427.603 83.2793 427.572 84.2542ZM610.594 82.3862C609.852 82.857 609.749 83.175 610.34 83.1831C610.879 83.1895 611.55 82.8312 611.83 82.3862C612.463 81.3815 612.177 81.3815 610.594 82.3862ZM179.721 83.357C178.43 84.6239 178.462 85.6222 179.792 85.6222C180.375 85.6222 180.851 84.8941 180.851 84.0042C180.851 83.1143 180.82 82.3862 180.781 82.3862C180.742 82.3862 180.265 82.8231 179.721 83.357ZM486.593 83.1394C486.332 83.5536 486.496 84.1207 486.956 84.4006C487.417 84.6797 487.794 84.3407 487.794 83.6474C487.794 82.226 487.299 82.0173 486.593 83.1394ZM616.781 83.1863C616.493 83.6442 616.823 83.7801 617.557 83.5042C618.984 82.9663 619.245 82.3862 618.06 82.3862C617.633 82.3862 617.058 82.7462 616.781 83.1863ZM15.3406 84.6077C15.5631 85.2638 14.9409 85.555 13.5546 85.4417C11.4077 85.2678 10.9437 84.7476 12.0044 83.7065C12.8516 82.8757 14.945 83.4411 15.3406 84.6077ZM435.871 83.552C435.871 83.7486 435.5 84.1336 435.047 84.4087C434.594 84.6837 434.223 84.5228 434.223 84.0519C434.223 83.5811 434.594 83.1952 435.047 83.1952C435.5 83.1952 435.871 83.3554 435.871 83.552ZM483.657 84.4273C482.786 85.4571 482.837 85.576 483.969 85.1497C484.712 84.869 485.321 84.3148 485.321 83.9176C485.321 82.8773 484.844 83.0237 483.657 84.4273ZM287.9 85.6764C287.144 86.8761 287.855 87.3744 289.459 86.7701C290.202 86.4902 290.604 85.936 290.353 85.5372C289.736 84.5575 288.563 84.6239 287.9 85.6764ZM291.643 85.5744C291.643 85.9935 291.952 86.5234 292.329 86.7523C292.707 86.9812 293.016 86.639 293.016 85.991C293.016 85.343 292.707 84.8132 292.329 84.8132C291.952 84.8132 291.643 85.1554 291.643 85.5744ZM14.2576 87.3251C13.6824 88.2384 11.4266 88.2781 11.4266 87.3752C11.4266 86.2362 12.3546 85.7119 13.5628 86.1674C14.1958 86.4052 14.509 86.9262 14.2576 87.3251ZM22.4226 86.6941C22.721 86.4012 22.9649 86.5865 22.9649 87.105C22.9649 87.6244 22.285 88.0491 21.4542 88.0491C20.6226 88.0491 19.9427 87.5087 19.9427 86.8486C19.9427 86.0202 20.2435 85.8924 20.9119 86.4368C21.4443 86.8712 22.1243 86.9869 22.4226 86.6941ZM117.744 90.4761C117.744 90.921 117.581 91.285 117.38 91.285C117.18 91.285 116.788 90.921 116.508 90.4761C116.227 90.0311 116.391 89.6671 116.871 89.6671C117.351 89.6671 117.744 90.0311 117.744 90.4761ZM18.1848 92.2558C17.4158 93.0106 16.9757 93.0106 16.2068 92.2558C15.4378 91.501 15.6571 91.285 17.1958 91.285C18.7345 91.285 18.9537 91.501 18.1848 92.2558ZM52.6348 91.603C52.6348 91.7777 52.0596 92.1377 51.3557 92.4031C50.6222 92.6789 50.2917 92.543 50.5802 92.0851C51.064 91.3158 52.6348 90.9477 52.6348 91.603Z" fill="#D7DB86"/>
</svg>
