<svg width="133" height="70" viewBox="0 0 133 70" fill="none" xmlns="http://www.w3.org/2000/svg">
<g id="logo-uk 4" clip-path="url(#clip0_541_1593)">
<g id="&#208;&#161;&#208;&#187;&#208;&#190;&#208;&#185; 2">
<g id="&#208;&#161;&#208;&#187;&#208;&#190;&#208;&#185; 1">
<path id="Vector" d="M55.4142 32.7391C55.6336 32.7823 55.8575 32.8031 56.0818 32.8011L56.7495 32.7391C56.5492 33.0556 55.9483 34.1106 54.9468 35.8856C53.7939 37.9544 52.8481 39.6694 52.1092 41.0306C51.121 42.8552 50.4667 44.0965 50.1462 44.7543L49.4786 44.686L48.7375 44.7605C49.1981 44.0778 49.6121 43.4386 49.986 42.8552C50.1129 42.6442 50.2664 42.396 50.4267 42.1105C50.302 41.8457 49.8569 41.0037 49.0913 39.5845C48.0564 37.7227 47.2886 36.3263 46.7745 35.4388C46.2707 34.5067 45.7043 33.605 45.0786 32.7391L46.2003 32.8011L47.2552 32.7391C47.9451 34.1541 48.3903 35.0499 48.5906 35.4264C48.8777 35.9787 49.2582 36.7173 49.759 37.6358L51.2479 40.4162L51.3881 40.4658C51.555 40.1865 51.9089 39.5659 52.443 38.604C53.2042 37.2138 53.7784 36.1649 54.1389 35.5008C54.7443 34.3258 55.1894 33.4197 55.4742 32.7825L55.4142 32.7391ZM68.8343 44.0158C67.8729 44.6695 66.4574 44.9964 64.588 44.9964C63.7004 45.0466 62.8111 44.9284 61.9743 44.6488C61.1375 44.3693 60.3707 43.9343 59.7206 43.3703C58.5633 42.2863 57.9847 40.7534 57.9847 38.7715C57.9447 37.9335 58.0926 37.0968 58.4191 36.3148C58.7455 35.5327 59.2433 34.8223 59.8809 34.2286C60.5724 33.642 61.3823 33.1891 62.2638 32.8961C63.1452 32.6031 64.0805 32.4759 65.0153 32.5219C66.427 32.5074 67.8225 32.8029 69.0881 33.3845C68.89 33.9242 68.7863 34.49 68.7809 35.0602C68.3755 34.4633 67.8074 33.9767 67.1344 33.6497C66.4613 33.3227 65.7072 33.167 64.9485 33.1983C64.2561 33.1637 63.5645 33.2772 62.9267 33.5301C62.2889 33.7829 61.722 34.1684 61.2696 34.6568C60.3092 35.8475 59.8358 37.3171 59.9343 38.8025C59.8508 40.2614 60.3237 41.7009 61.2696 42.8676C61.6999 43.3525 62.2451 43.7381 62.8625 43.9944C63.4799 44.2506 64.1527 44.3705 64.8283 44.3447C66.345 44.315 67.8026 43.7924 68.9478 42.8676L68.841 44.0282L68.8343 44.0158ZM70.2832 44.7605C70.5191 43.8089 70.8107 42.2387 71.1578 40.05C71.505 37.8613 71.87 35.3519 72.2528 32.5219H72.5733C73.4635 34.2058 74.3538 35.8608 75.244 37.4868C76.132 39.1004 77.0133 40.6396 77.8679 42.0981C79.6484 39.1356 81.5223 35.9518 83.4897 32.5467H83.7301C83.9749 34.7809 84.1151 36.0635 84.1507 36.3945C84.351 38.0392 84.5113 39.4046 84.6448 40.472C84.8317 41.9119 85.012 43.3517 85.199 44.8164C85.0855 44.8164 84.9452 44.7791 84.7917 44.7667H84.3443C84.0578 44.7649 83.7717 44.7877 83.4897 44.835C83.4897 43.4076 83.4296 42.1084 83.3094 40.9375C83.1893 39.7645 83.0491 38.7219 82.8821 37.8033C82.8821 37.5923 82.7219 37.0152 82.5082 36.0594C81.6737 37.3565 80.8858 38.6536 80.1313 39.9569C79.5638 40.9561 79.0364 41.9367 78.549 42.9111C78.1283 43.7551 77.8412 44.3944 77.6743 44.835H77.4473C77.2594 44.243 77.0205 43.666 76.7329 43.1097C76.4591 42.5573 76.0652 41.8684 75.6446 41.1361L72.6735 35.9973C72.3886 37.8468 72.166 39.599 72.0058 41.254C71.8389 42.9173 71.7587 44.0778 71.7587 44.7543C71.5395 44.7093 71.3156 44.6864 71.0911 44.686H70.6237L70.3233 44.7543L70.2832 44.7605ZM89.6924 32.7391C89.659 33.1239 89.6256 33.9369 89.6056 35.1657C89.5856 36.3945 89.5655 37.5799 89.5655 38.7095C89.5655 39.6156 89.5655 40.6644 89.5655 41.8498C89.5655 43.0352 89.6056 44.0096 89.679 44.7605C89.1 44.6696 88.5087 44.6696 87.9297 44.7605C87.9698 44.3757 87.9965 43.5193 88.0232 42.278C88.0499 41.0368 88.0232 39.7955 88.0232 38.697C88.0232 37.7971 88.0232 36.7669 88.0232 35.5939C88.0232 34.421 87.9765 33.4714 87.903 32.7204C88.4827 32.8032 89.0726 32.8032 89.6523 32.7204L89.6924 32.7391ZM108.728 32.7391C108.728 33.3597 108.728 33.9803 108.728 34.6754C108.668 36.4007 108.641 37.4868 108.641 37.9275C108.641 38.7777 108.641 39.8824 108.681 41.2292C108.721 42.5759 108.741 43.7799 108.761 44.8288C108.254 44.7854 107.666 44.7605 107.012 44.7605H105.309L103.64 44.7978C102.191 44.7543 101.176 44.7295 100.589 44.7295C100.001 44.7295 99.3335 44.7295 98.3855 44.7295C97.4374 44.7295 96.7363 44.7667 96.2756 44.7667C94.74 44.7233 93.6784 44.6985 93.0975 44.6985C92.669 44.6934 92.2407 44.7162 91.8156 44.7667C91.849 44.3757 91.8823 43.5255 91.9024 42.2842C91.9224 41.043 91.9358 39.8018 91.9358 38.6598C91.9358 37.7599 91.9358 36.7297 91.9358 35.5567C91.9358 34.3837 91.889 33.4342 91.8223 32.6832C91.9702 32.7077 92.1196 32.7243 92.2696 32.7329C92.4565 32.7329 92.5967 32.7329 92.6969 32.7329C92.8659 32.742 93.0353 32.742 93.2043 32.7329L93.5715 32.6956C93.5715 32.6956 93.5716 33.5397 93.5048 35.1781C93.438 36.8166 93.4447 38.064 93.4447 38.846C93.4447 39.4666 93.4447 40.23 93.4447 41.1051C93.4447 41.9801 93.4447 42.88 93.4981 43.8048H99.4537C99.4537 43.3641 99.4537 42.458 99.4537 41.0802C99.4537 39.7025 99.4938 38.8894 99.4938 38.635C99.4938 37.7351 99.4938 36.7048 99.4938 35.5319C99.4938 34.3589 99.4537 33.4093 99.3803 32.6584C99.5283 32.6829 99.6776 32.6995 99.8276 32.708C100.015 32.708 100.161 32.708 100.255 32.708C100.424 32.7172 100.593 32.7172 100.762 32.708L101.13 32.6708C101.13 32.6708 101.13 33.5148 101.069 35.1533C101.009 36.7917 101.003 38.0392 101.003 38.8212C101.003 39.4418 101.003 40.2052 101.003 41.0802C101.003 41.9553 101.003 42.8552 101.056 43.7799H107.018C107.018 43.3641 107.018 42.2594 107.052 40.4658C107.085 38.6722 107.052 37.7661 107.052 37.7475C107.052 37.1269 107.052 36.4628 107.052 35.7243C106.992 33.8624 106.958 32.8384 106.958 32.6212C107.248 32.662 107.54 32.6828 107.833 32.6832H108.16L108.728 32.6274V32.7391ZM113.502 38.3619C114.085 38.3619 116.059 36.4876 119.424 32.7391C119.701 32.7844 119.983 32.8051 120.265 32.8011C120.551 32.8099 120.838 32.7891 121.12 32.7391C120.497 33.2119 119.902 33.7153 119.337 34.2472L117.928 35.5567L115.164 38.1137C115.638 38.6722 116.232 39.3549 116.947 40.1183C117.125 40.3169 117.815 41.0513 119.016 42.3215L121.3 44.7605C120.928 44.7113 120.554 44.6864 120.178 44.686H119.718C119.514 44.6961 119.311 44.7189 119.11 44.7543C118.349 43.7737 117.608 42.8614 116.9 42.036L114.723 39.5535C114.223 38.9763 113.782 38.6908 113.388 38.6908V40.7823C113.388 41.2499 113.408 41.945 113.448 42.8676C113.488 43.7986 113.508 44.4316 113.508 44.7605C112.931 44.6695 112.342 44.6695 111.766 44.7605C111.766 44.3757 111.826 43.5193 111.852 42.278C111.879 41.0368 111.886 39.7955 111.886 38.697C111.886 37.7971 111.886 36.7669 111.886 35.5939C111.886 34.421 111.839 33.4714 111.772 32.7204C112.35 32.8032 112.937 32.8032 113.515 32.7204C113.515 33.0928 113.455 33.5211 113.428 34.0051C113.401 34.4892 113.428 35.0105 113.428 35.5877V38.2936C113.428 38.2936 113.428 38.3371 113.515 38.3619H113.502ZM121.32 44.7605C123.39 40.5817 125.339 36.5021 127.169 32.5219H127.523C128.137 33.9493 128.749 35.354 129.359 36.7359C129.906 37.9771 130.514 39.3239 131.195 40.8134C131.943 42.4684 132.55 43.7841 133.018 44.7605C132.711 44.7137 132.4 44.6909 132.089 44.6923H131.682C131.494 44.7034 131.306 44.7262 131.121 44.7605C130.874 44.0468 130.634 43.4138 130.407 42.8552C130.113 42.1229 129.806 41.4154 129.499 40.7389L129.178 40.0376H124.505C124.338 40.3789 124.077 40.9561 123.737 41.7691C123.327 42.7332 122.929 43.7303 122.542 44.7605C122.45 44.7375 122.356 44.7209 122.261 44.7109C122.146 44.7045 122.03 44.7045 121.914 44.7109C121.773 44.7071 121.632 44.7196 121.494 44.7481L121.293 44.7791L121.32 44.7605ZM126.855 34.9237L124.852 39.268H126.274H128.811L128.491 38.5357L126.855 34.9237Z" fill="#1D1D1D"/>
<path id="Vector_2" d="M50.4754 50.1266V55.346C50.4754 56.2459 50.4754 57.2761 50.4754 58.4491C50.4754 59.6221 50.5222 60.5716 50.5889 61.3226C50.2999 61.2782 50.0072 61.2574 49.7143 61.2605C49.4214 61.2577 49.1287 61.2784 48.8396 61.3226C48.8797 60.9378 48.9064 60.131 48.9331 58.896C48.9598 57.6609 48.9331 56.4817 48.9331 55.3522V50.1266H48.379C47.2151 50.1068 46.0516 50.1774 44.9004 50.3376L44.9338 49.8411L44.9004 49.2949H47.5243L49.6676 49.3322H51.7908C52.632 49.3322 53.52 49.3322 54.4614 49.2825L54.408 49.7976C54.4008 49.9749 54.4188 50.1523 54.4614 50.3252C53.9626 50.2421 53.4586 50.1882 52.9525 50.1638C52.3783 50.1266 51.764 50.1142 51.1231 50.1142L50.4754 50.1266ZM66.2124 51.5106L57.4192 61.3164C57.3428 61.2736 57.2547 61.2521 57.1655 61.2543L56.8984 61.3164C56.8984 60.9316 56.9652 60.0751 56.9852 58.8339C57.0053 57.5927 57.0253 56.3824 57.0253 55.2529C57.0253 54.3592 57.0253 53.329 57.0253 52.1498C57.0253 50.9706 56.9852 50.0211 56.9118 49.2701C57.1984 49.3168 57.4888 49.3396 57.7798 49.3384C58.0685 49.3396 58.3567 49.3168 58.6411 49.2701C58.6411 49.3942 58.6411 49.8907 58.5876 50.7286C58.5342 51.5664 58.4875 52.2739 58.4875 52.7518C58.4875 53.7882 58.4875 54.713 58.4875 55.526C58.4875 56.339 58.5342 57.2761 58.5676 58.3374L66.8133 49.3011L67.3141 49.3508C67.5059 49.3541 67.6971 49.3311 67.8816 49.2825C67.8816 49.6673 67.8149 50.4803 67.7948 51.7154C67.7748 52.9504 67.7948 54.1234 67.7948 55.2529C67.7948 56.159 67.7948 57.2079 67.7948 58.3933C67.7948 59.5786 67.8416 60.553 67.9083 61.304C67.6193 61.2595 67.3266 61.2388 67.0337 61.2419C66.7407 61.239 66.4481 61.2598 66.159 61.304C66.1991 60.2241 66.2258 59.2932 66.2525 58.5112C66.2792 57.7292 66.2525 56.9162 66.2525 56.0659C66.2525 55.4019 66.2525 54.6819 66.2525 53.8999C66.2525 53.118 66.2525 52.3112 66.2058 51.4733L66.2124 51.5106ZM70.2652 61.3412C70.5056 60.3917 70.7927 58.8215 71.1399 56.6307C71.487 54.4399 71.8476 51.9326 72.2348 49.1025H72.5553C73.4455 50.7865 74.3358 52.4415 75.226 54.0675C76.1207 55.6811 76.9953 57.2141 77.8566 58.6787C79.6593 55.7122 81.531 52.5263 83.4717 49.1212H83.7188C83.968 51.3554 84.106 52.638 84.1327 52.969C84.333 54.624 84.4977 55.9852 84.6268 57.0527L85.1876 61.3598L84.7737 61.3102H84.3264C84.04 61.3068 83.754 61.3275 83.4717 61.3722C83.4717 59.951 83.4116 58.6477 83.2915 57.4747C83.1713 56.3018 83.0311 55.2591 82.8642 54.3716C82.8642 54.1668 82.7039 53.5834 82.4903 52.6339C81.6557 53.9248 80.8678 55.2281 80.12 56.5314C79.5458 57.5244 79.0184 58.5112 78.531 59.4793C78.117 60.3234 77.8232 60.9626 77.6563 61.4033H77.3893C77.2133 60.7772 76.9787 60.1667 76.6882 59.5786C76.4145 59.0263 76.0205 58.3374 75.5999 57.6113L72.6555 52.547C72.3684 54.4089 72.1414 56.1466 71.9878 57.8099C71.8342 59.4731 71.7341 60.6337 71.7341 61.304C71.5146 61.2609 71.2907 61.2401 71.0664 61.2419H70.599C70.4588 61.2419 70.3587 61.2978 70.2986 61.304L70.2652 61.3412ZM93.9608 61.5771C93.0321 61.6255 92.1022 61.5029 91.2245 61.2165C90.3469 60.93 89.5387 60.4852 88.8465 59.9076C88.2121 59.3119 87.7186 58.5994 87.3978 57.816C87.077 57.0326 86.936 56.1955 86.9837 55.3584C86.9417 54.5191 87.09 53.6809 87.419 52.8983C87.7479 52.1156 88.2502 51.406 88.8932 50.8155C90.3225 49.7166 92.1193 49.1153 93.9742 49.1153C95.8291 49.1153 97.6259 49.7166 99.0552 50.8155C99.6891 51.4153 100.182 52.1312 100.503 52.9175C100.823 53.7038 100.965 54.5434 100.918 55.3832C100.954 56.216 100.802 57.0466 100.472 57.8215C100.142 58.5965 99.6413 59.2986 99.0018 59.8828C98.3257 60.4651 97.532 60.917 96.6667 61.2121C95.8014 61.5072 94.8817 61.6397 93.9608 61.6019V61.5771ZM93.9608 60.913C94.663 60.9499 95.3651 60.8391 96.0148 60.5887C96.6645 60.3383 97.2451 59.9549 97.7132 59.4669C98.6012 58.505 99.0485 57.1334 99.0485 55.3398C99.0485 53.5462 98.6212 52.1312 97.7599 51.1878C96.7476 50.2695 95.3871 49.7585 93.9727 49.7655C92.5582 49.7725 91.2036 50.2968 90.2019 51.2251C89.3116 52.1974 88.8665 53.5917 88.8665 55.4081C88.8665 57.2244 89.3116 58.5836 90.2019 59.4856C90.6779 59.9715 91.2651 60.352 91.9202 60.599C92.5754 60.8461 93.2819 60.9534 93.9875 60.913H93.9608ZM119.045 49.2949C119.045 49.9156 119.045 50.5362 119.012 51.2375C118.952 52.9628 118.918 54.0427 118.918 54.4833C118.918 55.3398 118.918 56.4383 118.965 57.785C119.012 59.1318 119.019 60.3358 119.045 61.3847C118.531 61.3412 117.95 61.3164 117.296 61.3164C116.993 61.3164 116.426 61.3288 115.593 61.3536H113.924C112.475 61.3102 111.454 61.2854 110.873 61.2854C110.292 61.2854 109.618 61.2854 108.67 61.3226C107.722 61.3598 107.02 61.3226 106.553 61.3226C105.024 61.2792 103.963 61.2543 103.382 61.2543C102.951 61.2491 102.52 61.2719 102.093 61.3226C102.133 60.9378 102.16 60.0813 102.187 58.8401C102.213 57.5989 102.187 56.3576 102.187 55.2157C102.187 54.322 102.187 53.2917 102.187 52.1126C102.187 50.9334 102.14 49.9838 102.066 49.2329C102.214 49.2601 102.363 49.2767 102.514 49.2825H102.941C103.108 49.2825 103.282 49.2825 103.448 49.2825L103.816 49.2391C103.816 49.2391 103.816 50.0893 103.756 51.7216C103.695 53.3538 103.689 54.6075 103.689 55.3957C103.689 56.0204 103.689 56.7714 103.689 57.6485C103.689 58.5236 103.689 59.4235 103.742 60.3544H109.705C109.705 59.9138 109.705 59.0015 109.738 57.6237C109.771 56.2459 109.738 55.4329 109.738 55.1784C109.738 54.2847 109.738 53.2545 109.738 52.0753C109.738 50.8961 109.691 49.9466 109.624 49.1956C109.77 49.2229 109.917 49.2395 110.065 49.2453H110.499C110.666 49.2453 110.833 49.2453 111.006 49.2453L111.374 49.2018C111.374 49.2018 111.374 50.0521 111.307 51.6843C111.24 53.3166 111.247 54.5702 111.247 55.3584C111.247 55.979 111.247 56.7362 111.247 57.6113C111.247 58.4864 111.28 59.3863 111.307 60.3172H117.263C117.263 59.8952 117.263 58.7905 117.296 56.9969C117.329 55.2033 117.336 54.3034 117.336 54.2785C117.336 53.6579 117.336 52.9938 117.296 52.2553C117.236 50.3934 117.209 49.3694 117.209 49.1522C117.498 49.1952 117.791 49.218 118.084 49.2205H118.384C118.577 49.2108 118.768 49.1921 118.958 49.1646L119.045 49.2949ZM123.859 49.2949C123.859 49.6797 123.799 50.4927 123.772 51.7278C123.746 52.9628 123.772 54.1358 123.772 55.2653C123.772 56.1714 123.772 57.2203 123.772 58.4057C123.772 59.5911 123.819 60.5654 123.886 61.3164C123.308 61.2337 122.721 61.2337 122.143 61.3164C122.143 60.9316 122.203 60.0751 122.23 58.8339C122.257 57.5927 122.263 56.3824 122.263 55.2529C122.263 54.3592 122.263 53.329 122.263 52.1498C122.263 50.9706 122.217 50.0211 122.15 49.2701C122.727 49.3611 123.316 49.3611 123.893 49.2701L123.859 49.2949Z" fill="#649612"/>
<path id="Vector_3" d="M45.1904 66.4048H45.6177L46.3321 67.4847L47.0532 66.4048H47.6341L46.6259 67.9254L47.7008 69.5452H47.1133L46.3321 68.366L45.5443 69.5452H44.9634L46.0717 67.9316L45.0302 66.4048H45.1904ZM48.0747 66.4048H49.1831L49.4768 66.4421C49.5744 66.4669 49.6685 66.5024 49.7573 66.5476C49.8383 66.599 49.9123 66.6595 49.9776 66.7276C50.0432 66.8008 50.0931 66.8851 50.1245 66.9758C50.1922 67.1779 50.1922 67.3944 50.1245 67.5964C50.0944 67.6858 50.0444 67.7683 49.9776 67.8385C49.9194 67.9129 49.8441 67.9744 49.7573 68.0185C49.666 68.0693 49.5669 68.107 49.4635 68.1302C49.3559 68.1522 49.2464 68.1647 49.1363 68.1674H48.6289H48.4887V69.5514H47.9879V66.4048H48.0747ZM48.4887 66.8579V67.7081H48.9427C49.1014 67.7167 49.2603 67.6956 49.4101 67.6461C49.4517 67.6351 49.4904 67.6161 49.5236 67.5902C49.5559 67.5644 49.585 67.5352 49.6104 67.5033C49.6337 67.4686 49.6516 67.431 49.6638 67.3916C49.6708 67.3505 49.6708 67.3086 49.6638 67.2675C49.6613 67.1863 49.636 67.1071 49.5903 67.0379C49.567 67.0064 49.5402 66.9772 49.5102 66.951C49.4776 66.9278 49.4417 66.909 49.4034 66.8951C49.3504 66.874 49.294 66.8614 49.2365 66.8579H48.9627H48.4887ZM53.2492 69.5452H52.8219V67.3978L50.8189 69.5452H50.6186V66.4048H51.1126V68.5832L53.1156 66.4048H53.3159V69.5452H53.2492ZM57.0616 67.0999L56.7411 67.3296L56.6877 67.2675C56.6234 67.1914 56.5519 67.1208 56.474 67.0565C56.3968 66.9968 56.3115 66.9467 56.2203 66.9075C56.1277 66.8636 56.0287 66.8323 55.9265 66.8145C55.8222 66.805 55.7171 66.805 55.6127 66.8145C55.4958 66.8139 55.3792 66.8264 55.2655 66.8517C55.1534 66.8799 55.0456 66.9216 54.9451 66.9758C54.8474 67.0292 54.7557 67.0916 54.6713 67.162C54.5972 67.2372 54.5302 67.3182 54.471 67.404C54.4161 67.4939 54.3735 67.5898 54.3442 67.6895C54.3169 67.7952 54.3035 67.9036 54.3041 68.0122C54.303 68.1735 54.3347 68.3336 54.3976 68.4839C54.4611 68.6272 54.5567 68.7562 54.678 68.8625C54.8002 68.9752 54.9455 69.0638 55.1053 69.1232C55.2743 69.1801 55.4531 69.2075 55.6328 69.2038C55.8349 69.2087 56.0355 69.1697 56.2186 69.09C56.4017 69.0103 56.5623 68.892 56.6877 68.7446L56.7478 68.6887L57.135 68.9618L57.0816 69.0301C56.9962 69.1281 56.9 69.2175 56.7945 69.2969C56.6877 69.3741 56.5711 69.4387 56.4473 69.4893C56.3227 69.5473 56.1902 69.589 56.0534 69.6135C55.9081 69.6387 55.7606 69.6512 55.6127 69.6507C55.351 69.6626 55.0897 69.6198 54.8482 69.5252C54.6066 69.4307 54.391 69.2869 54.2173 69.1045C54.0745 68.9569 53.9654 68.7837 53.8968 68.5956C53.8215 68.3964 53.7853 68.1862 53.79 67.975C53.788 67.7624 53.8312 67.5515 53.9168 67.3544C54.0097 67.1563 54.1436 66.977 54.3108 66.8269C54.4771 66.6742 54.6746 66.5539 54.8916 66.4731C55.1208 66.3969 55.3627 66.359 55.6061 66.3614C55.7675 66.361 55.9285 66.3755 56.0868 66.4048C56.2249 66.435 56.3592 66.4787 56.4874 66.5352C56.6113 66.5931 56.7278 66.6639 56.8346 66.7462C56.9414 66.8268 57.0358 66.9208 57.115 67.0255L57.1684 67.0875L57.095 67.1372L57.0616 67.0999ZM57.2485 66.7772V66.4048H59.1781V66.8579H58.4637V69.5452H57.9629V66.8579H57.2485V66.7772ZM62.0958 69.5514H61.6752V67.404L59.6722 69.5514H59.4719V66.4048H59.9726V68.5832L61.9756 66.4048H62.1759V69.5452L62.0958 69.5514ZM64.0387 66.4048H64.7665V69.5452H64.2724V68.1612H64.219L63.0639 69.5452H62.443L63.6048 68.155H63.4044C63.3031 68.1402 63.2044 68.1131 63.1107 68.0743C63.0306 68.0442 62.9562 68.0023 62.8903 67.9502C62.8237 67.8957 62.7654 67.833 62.7167 67.764C62.6738 67.6957 62.6402 67.6228 62.6166 67.5468C62.6064 67.4643 62.6064 67.381 62.6166 67.2985C62.6143 67.1975 62.6301 67.0968 62.6633 67.0006C62.6972 66.9096 62.7493 66.8254 62.8169 66.7524C62.881 66.6791 62.9577 66.6162 63.0439 66.5662C63.1334 66.5193 63.2303 66.4858 63.331 66.4669C63.425 66.4448 63.5212 66.4324 63.6181 66.4297L64.0387 66.4048ZM64.2724 67.7081V66.8579H63.7917H63.518C63.4603 66.8606 63.4037 66.8732 63.351 66.8951C63.3121 66.9076 63.2759 66.9265 63.2442 66.951C63.2124 66.9755 63.1853 67.0049 63.1641 67.0379C63.1397 67.0698 63.1216 67.1055 63.1107 67.1434C63.1043 67.1825 63.1043 67.2222 63.1107 67.2613C63.1037 67.3024 63.1037 67.3443 63.1107 67.3854C63.12 67.4257 63.1382 67.4637 63.1641 67.4971C63.1871 67.5288 63.214 67.558 63.2442 67.584C63.2794 67.6119 63.3203 67.633 63.3644 67.6461C63.4195 67.6678 63.4782 67.6804 63.538 67.6833C63.6268 67.6903 63.7162 67.6903 63.805 67.6833L64.2724 67.7081ZM65.4342 66.4048H65.8481V67.6461H67.3036V66.4048H67.8044V69.5452H67.3036V68.1053H65.8748V69.5452H65.3741V66.4048H65.4342ZM71.53 67.0999L71.2095 67.3296L71.1561 67.2675C71.0918 67.1914 71.0203 67.1208 70.9425 67.0565C70.8639 66.9954 70.7762 66.9452 70.6821 66.9075C70.5922 66.8627 70.4953 66.8313 70.395 66.8145C70.2906 66.805 70.1855 66.805 70.0812 66.8145C69.9642 66.8139 69.8477 66.8264 69.734 66.8517C69.6218 66.8799 69.514 66.9216 69.4135 66.9758C69.3158 67.0292 69.2241 67.0916 69.1397 67.162C69.0637 67.2356 68.9965 67.3168 68.9394 67.404C68.8845 67.4939 68.8419 67.5898 68.8126 67.6895C68.7853 67.7952 68.7719 67.9036 68.7725 68.0122C68.7714 68.1735 68.8031 68.3336 68.866 68.4839C68.9295 68.6272 69.0251 68.7562 69.1464 68.8625C69.2686 68.9752 69.4139 69.0638 69.5737 69.1232C69.7427 69.1801 69.9215 69.2075 70.1012 69.2038C70.3011 69.2052 70.4991 69.1671 70.6821 69.0921C70.8657 69.0102 71.0276 68.8915 71.1561 68.7446L71.2095 68.6887L71.6034 68.9618L71.55 69.0301C71.4646 69.1281 71.3684 69.2175 71.2629 69.2969C71.0412 69.4515 70.7861 69.5595 70.5151 69.6135C70.3721 69.639 70.2268 69.6515 70.0812 69.6507C69.8194 69.6626 69.5581 69.6198 69.3166 69.5252C69.075 69.4307 68.8595 69.2869 68.6857 69.1045C68.5429 68.9569 68.4338 68.7837 68.3652 68.5956C68.2876 68.3968 68.2492 68.1865 68.2517 67.975C68.2494 67.7589 68.2944 67.5445 68.3839 67.345C68.4734 67.1455 68.6056 66.965 68.7725 66.8145C68.9424 66.6628 69.1418 66.5428 69.3601 66.4607C69.5892 66.3845 69.8311 66.3466 70.0745 66.349C70.2245 66.3485 70.3743 66.361 70.5218 66.3862C70.6599 66.4164 70.7942 66.46 70.9224 66.5166C71.0464 66.5745 71.1628 66.6453 71.2696 66.7276C71.3765 66.8082 71.4708 66.9022 71.55 67.0068L71.6034 67.0689L71.53 67.1186V67.0999ZM72.1242 66.4048H72.5315V67.6833H72.6717C72.8854 67.6833 73.0656 67.6833 73.2192 67.6833C73.3471 67.6886 73.4743 67.7031 73.5998 67.7268C73.6975 67.7451 73.7905 67.7809 73.8735 67.8323C73.9562 67.8841 74.0305 67.9468 74.0939 68.0185C74.1563 68.0973 74.2037 68.1854 74.2341 68.2791C74.295 68.4821 74.295 68.6967 74.2341 68.8997C74.2064 68.9944 74.1588 69.083 74.0939 69.1604C74.0358 69.2319 73.9685 69.2965 73.8936 69.3528C73.8136 69.4024 73.7257 69.4401 73.6332 69.4645C73.5164 69.4878 73.3982 69.5044 73.2793 69.5142C73.1324 69.5142 72.9588 69.5142 72.7585 69.5142H72.0308V66.4048H72.1242ZM72.5315 69.0921H72.7852H73.2259C73.3058 69.0996 73.3863 69.0996 73.4662 69.0921C73.5099 69.0811 73.5508 69.0621 73.5864 69.0363C73.6225 69.0099 73.6541 68.9785 73.6799 68.9432C73.7078 68.9078 73.7282 68.8677 73.74 68.8253C73.7469 68.7717 73.7469 68.7175 73.74 68.6639C73.7511 68.6044 73.7511 68.5435 73.74 68.4839C73.7264 68.4359 73.7013 68.3913 73.6665 68.3536C73.6375 68.3144 73.5985 68.2825 73.553 68.2605C73.5082 68.2348 73.4582 68.2179 73.4062 68.2109C73.3195 68.2052 73.2325 68.2052 73.1458 68.2109H72.5382V69.1666L72.5315 69.0921ZM74.8283 66.4048H75.2423V67.4102L76.404 66.4048H77.0717L75.4492 67.8323L77.1985 69.5514H76.5309L75.2489 68.3101V69.5514H74.7816V66.4048H74.8283ZM79.9961 69.5452H79.5688V67.3978L77.5657 69.5452H77.3588V66.4048H77.8595V68.5832L79.8625 66.4048H80.0628V69.5452H79.9961ZM83.2944 69.5452H82.8737V67.3978L80.8707 69.5452H80.6704V66.4048H81.1712V68.5832L83.1742 66.4048H83.3745V69.5452H83.2944ZM81.2913 65.6849H81.6252V65.7222C81.6443 65.7511 81.6693 65.7764 81.6986 65.7966L81.7854 65.8525H81.9056H82.0458H82.1927H82.2929L82.3797 65.7966C82.4112 65.7718 82.4382 65.7425 82.4598 65.7097V65.6787H82.8938V65.778C82.8814 65.8517 82.8467 65.9206 82.7936 65.9766C82.7434 66.0374 82.6825 66.0899 82.6133 66.1318C82.5361 66.1805 82.4502 66.2162 82.3596 66.2373C82.1528 66.2787 81.9388 66.2787 81.732 66.2373C81.6401 66.2171 81.5522 66.1836 81.4716 66.138C81.4018 66.0946 81.3389 66.0424 81.2847 65.9828C81.2373 65.9227 81.2012 65.8555 81.1778 65.7842V65.6787L81.2913 65.6849ZM85.244 69.4645V66.4048H87.0333V66.8579H85.7447V67.6461H85.8048C86.0118 67.6461 86.1854 67.6461 86.3323 67.6461C86.4601 67.6577 86.5858 67.6849 86.7062 67.7268C86.8013 67.761 86.8912 67.8069 86.9732 67.8633C87.0501 67.9224 87.1176 67.9913 87.1735 68.0681C87.2316 68.143 87.2746 68.2272 87.3004 68.3164C87.3326 68.4021 87.3485 68.4924 87.3471 68.5832C87.3476 68.7051 87.3203 68.8256 87.267 68.937C87.2175 69.0517 87.1424 69.1553 87.0467 69.2411C86.9447 69.3353 86.8216 69.4073 86.6861 69.4521C86.5362 69.5013 86.3777 69.5245 86.2188 69.5204H85.244V69.4397V69.4645ZM85.7447 68.1116V69.0921H86.0518H86.3389C86.4028 69.0844 86.4656 69.0698 86.5259 69.0487C86.5704 69.0296 86.6128 69.0068 86.6527 68.9804C86.6874 68.9503 86.7187 68.917 86.7462 68.8811C86.7716 68.8444 86.7918 68.8047 86.8063 68.7632C86.8132 68.7179 86.8132 68.672 86.8063 68.6267C86.8164 68.5733 86.8164 68.5187 86.8063 68.4653C86.7865 68.4153 86.7571 68.369 86.7195 68.3288C86.6812 68.2891 86.6361 68.2555 86.586 68.2295C86.5377 68.1988 86.4832 68.1777 86.4257 68.1674C86.3457 68.1618 86.2654 68.1618 86.1854 68.1674H85.8449L85.7447 68.1116ZM90.4919 69.5452H90.0846L89.0764 67.3668L88.0549 69.5452H87.514L88.9896 66.4048H89.1765L90.6187 69.508L92.2078 66.4048H92.4014L93.9771 69.5452H93.4363L92.9355 68.5708H91.6603L91.1595 69.5452H90.4919ZM92.3012 67.3047L91.894 68.1116H92.7085L92.3012 67.3047ZM94.6514 69.5452H94.2375V66.4048H96.0268V66.8579H94.7382V69.5452H94.6514ZM97.923 66.3304C98.1627 66.3269 98.4009 66.367 98.6241 66.4483C98.8403 66.5305 99.0375 66.6506 99.205 66.802C99.3719 66.9535 99.5037 67.1352 99.5922 67.3358C99.6771 67.5331 99.7202 67.7439 99.7191 67.9564C99.7197 68.2814 99.6175 68.5995 99.4252 68.8709C99.2329 69.1424 98.9589 69.3553 98.6374 69.4831C98.4249 69.5614 98.1983 69.6014 97.9698 69.601C97.7411 69.6021 97.5144 69.562 97.3021 69.4831C97.0854 69.4023 96.8897 69.2796 96.7279 69.1232C96.5591 68.9755 96.427 68.7955 96.3406 68.5956C96.2525 68.399 96.2071 68.1881 96.2071 67.975C96.2069 67.6818 96.2873 67.3934 96.4408 67.1372C96.5191 67.0133 96.6132 66.8986 96.7212 66.7958C96.8305 66.694 96.954 66.6063 97.0884 66.5352C97.2134 66.4765 97.3457 66.4328 97.4824 66.4048C97.6307 66.3696 97.7833 66.3529 97.9364 66.3552L97.923 66.3304ZM97.923 66.7834C97.7022 66.785 97.4857 66.8406 97.2954 66.9448C97.0983 67.0453 96.9362 67.196 96.8281 67.3792C96.7743 67.4689 96.7339 67.5649 96.7079 67.6647C96.6755 67.7696 96.6598 67.8783 96.6611 67.9874C96.6607 68.1446 96.6924 68.3005 96.7546 68.4467C96.8181 68.5899 96.9137 68.719 97.035 68.8253C97.151 68.9344 97.2893 69.0209 97.4418 69.0795C97.5944 69.1381 97.758 69.1677 97.923 69.1666C98.1567 69.1731 98.3878 69.1194 98.5907 69.0115C98.6863 68.958 98.7758 68.8956 98.8578 68.8253C98.9318 68.7515 98.9967 68.6703 99.0514 68.5832C99.1101 68.4929 99.1529 68.3944 99.1782 68.2915C99.2295 68.0874 99.2295 67.875 99.1782 67.6709C99.1529 67.57 99.1101 67.4736 99.0514 67.3854C98.9967 67.2983 98.9318 67.2171 98.8578 67.1434C98.7734 67.073 98.6817 67.0106 98.584 66.9572C98.3842 66.8418 98.1513 66.7855 97.9163 66.7958L97.923 66.7834ZM100.267 69.992H99.8526V69.1045H100.153L101.415 66.4048H101.635L102.971 69.1045H103.251V69.992H102.75V69.5452H100.373V69.992H100.267ZM100.694 69.1045H102.376L101.515 67.3109L100.694 69.1045ZM103.558 66.4048H103.972V69.5452H103.491V66.4048H103.558ZM107.144 69.5452H106.716V67.3978L104.713 69.5452H104.506V66.4048H105.007V68.5832L107.01 66.4048H107.21V69.5452H107.144ZM105.107 65.6849H105.441V65.7222C105.46 65.7511 105.485 65.7764 105.514 65.7966L105.601 65.8525H105.721H105.862H106.009H106.109L106.195 65.7966C106.228 65.7705 106.257 65.7414 106.282 65.7097V65.6787H106.716V65.778C106.698 65.8499 106.664 65.9176 106.616 65.9766C106.563 66.0376 106.5 66.09 106.429 66.1318C106.352 66.1805 106.266 66.2162 106.175 66.2373C105.969 66.2787 105.755 66.2787 105.548 66.2373C105.458 66.2183 105.372 66.1847 105.294 66.138C105.222 66.0977 105.158 66.045 105.107 65.9828C105.058 65.9229 105.019 65.8558 104.994 65.7842V65.6787L105.107 65.6849ZM107.911 66.4048H108.325V67.6461H109.781V66.4048H110.282V69.5452H109.781V68.1053H108.325V69.5452H107.825V66.4048H107.911ZM113.493 69.5452H113.072V67.3978L111.069 69.5452H110.869V66.4048H111.37V68.5832L113.373 66.4048H113.58V69.5452H113.493ZM116.798 69.5452H116.371V67.3978L114.368 69.5452H114.174V66.4048H114.675V68.5832L116.678 66.4048H116.878V69.5452H116.798ZM114.795 65.6849H115.129V65.7222C115.146 65.7508 115.168 65.7761 115.196 65.7966L115.289 65.8525H115.403H115.55H115.69H115.797C115.826 65.838 115.853 65.8191 115.877 65.7966C115.91 65.7722 115.94 65.7428 115.963 65.7097V65.6787H116.397V65.778C116.379 65.8499 116.345 65.9176 116.297 65.9766C116.247 66.0374 116.186 66.0899 116.117 66.1318C116.038 66.1817 115.95 66.2175 115.857 66.2373C115.753 66.2508 115.647 66.2508 115.543 66.2373C115.441 66.2505 115.338 66.2505 115.236 66.2373C115.06 66.2024 114.902 66.1126 114.788 65.9828C114.739 65.9241 114.702 65.8565 114.682 65.7842L114.648 65.6787L114.795 65.6849ZM120.23 66.4048H120.637V66.7834H120.797C121.011 66.7806 121.224 66.8035 121.432 66.8517C121.593 66.8905 121.742 66.9651 121.866 67.0689C121.962 67.1601 122.039 67.2675 122.093 67.3854C122.146 67.5033 122.173 67.6299 122.173 67.7578C122.171 67.8763 122.149 67.9937 122.106 68.1053C122.057 68.216 121.99 68.3187 121.906 68.4095C121.796 68.5148 121.658 68.59 121.505 68.6267C121.308 68.6782 121.103 68.7012 120.898 68.6949H120.637V69.5452H120.143V68.7011H119.883H119.542C119.445 68.6904 119.349 68.6717 119.255 68.6453C119.164 68.62 119.078 68.5801 119.001 68.5274C118.924 68.4712 118.855 68.4066 118.794 68.335C118.735 68.2547 118.687 68.167 118.654 68.0743C118.625 67.9774 118.609 67.8772 118.607 67.7764C118.607 67.6485 118.634 67.5219 118.688 67.404C118.746 67.2726 118.837 67.1558 118.953 67.0631C119.069 66.9704 119.207 66.9043 119.355 66.8703C119.574 66.8204 119.798 66.7975 120.023 66.802H120.183V66.4048H120.23ZM120.637 67.2427V68.2667H121.064C121.155 68.2679 121.245 68.2553 121.332 68.2295C121.4 68.2116 121.462 68.1773 121.512 68.1302C121.56 68.0857 121.599 68.033 121.625 67.975C121.653 67.9119 121.666 67.8444 121.665 67.7764C121.667 67.7037 121.651 67.6315 121.619 67.5654C121.588 67.5044 121.542 67.4512 121.485 67.4102C121.421 67.3571 121.342 67.3207 121.258 67.3047C121.145 67.2782 121.028 67.2657 120.911 67.2675L120.637 67.2427ZM120.143 67.2427H119.869C119.761 67.2292 119.651 67.2292 119.542 67.2427C119.455 67.2625 119.374 67.2984 119.302 67.3482C119.243 67.3892 119.195 67.4423 119.162 67.5033C119.132 67.5726 119.116 67.6461 119.115 67.7206C119.113 67.7861 119.126 67.8513 119.153 67.9121C119.179 67.9729 119.218 68.0281 119.268 68.0743C119.321 68.1217 119.385 68.1559 119.455 68.1736C119.546 68.2008 119.641 68.2134 119.736 68.2109H120.143V67.2116V67.2427ZM124.256 66.3304C124.484 66.3309 124.711 66.3708 124.924 66.4483C125.14 66.5305 125.337 66.6506 125.505 66.802C125.671 66.9535 125.803 67.1352 125.892 67.3358C125.977 67.5331 126.02 67.7439 126.019 67.9564C126.024 68.1733 125.982 68.389 125.893 68.5899C125.805 68.7907 125.672 68.9723 125.505 69.1232C125.342 69.2783 125.146 69.4008 124.93 69.4831C124.718 69.5628 124.491 69.6029 124.263 69.601C124.034 69.6021 123.807 69.562 123.595 69.4831C123.377 69.4009 123.18 69.2785 123.014 69.1232C122.85 68.9722 122.718 68.7931 122.627 68.5956C122.541 68.3986 122.498 68.1876 122.5 67.975C122.5 67.6818 122.58 67.3934 122.734 67.1372C122.812 67.0133 122.906 66.8986 123.014 66.7958C123.122 66.6955 123.243 66.608 123.375 66.5352C123.509 66.4626 123.652 66.4063 123.802 66.3676C123.95 66.332 124.103 66.3153 124.256 66.318V66.3304ZM124.256 66.7834C124.035 66.785 123.819 66.8406 123.628 66.9448C123.533 66.9983 123.443 67.0606 123.361 67.131C123.282 67.204 123.214 67.2876 123.161 67.3792C123.108 67.4699 123.065 67.5656 123.034 67.6647C123.007 67.7705 122.994 67.8788 122.994 67.9874C122.994 68.1446 123.025 68.3005 123.088 68.4467C123.151 68.5885 123.244 68.7171 123.361 68.8253C123.48 68.9345 123.621 69.0209 123.775 69.0797C123.928 69.1376 124.091 69.1671 124.256 69.1666C124.49 69.1724 124.72 69.1188 124.924 69.0115C125.018 68.9596 125.106 68.8971 125.184 68.8253C125.262 68.7532 125.329 68.6718 125.384 68.5832C125.44 68.4916 125.483 68.3935 125.511 68.2915C125.562 68.0874 125.562 67.875 125.511 67.6709C125.486 67.57 125.443 67.4736 125.384 67.3854C125.329 67.2968 125.262 67.2154 125.184 67.1434C125.103 67.0716 125.014 67.0091 124.917 66.9572C124.818 66.9035 124.713 66.8618 124.603 66.8331C124.496 66.8077 124.386 66.7952 124.276 66.7958L124.256 66.7834ZM126.593 66.4048H127V67.6461H128.456V66.4048H128.956V69.5452H128.456V68.1053H127V69.5452H126.499V66.4048H126.593ZM129.644 69.992H129.237V69.1045H129.531L130.786 66.4048H131.013L132.348 69.1045H132.629V69.992H132.128V69.5452H129.751V69.992H129.644ZM130.078 69.1045H131.761L130.899 67.3109L130.078 69.1045Z" fill="#1D1D1D"/>
<path id="Vector_4" fill-rule="evenodd" clip-rule="evenodd" d="M-0.00243082 29.1074C1.51986 28.673 2.71499 27.7234 4.31072 27.1773C10.5468 25.0609 9.39837 27.078 11.1276 27.922C11.9425 28.225 12.8028 28.4092 13.6781 28.4682C15.9482 28.7536 16.6359 29.306 18.1248 30.2555C19.34 31.0251 20.7955 31.9623 21.5233 32.9925C22.0908 33.8179 21.8638 34.2772 22.9387 34.6185C23.8293 34.8345 24.743 34.9573 25.6628 34.9847C26.6176 35.0654 27.5991 35.1709 28.5338 35.3074C29.6221 35.4626 30.1028 36.0397 29.4418 36.9645C29.088 37.461 28.2334 37.9202 28.3402 38.8822C28.3777 39.0567 28.4573 39.2211 28.573 39.363C28.6886 39.5049 28.8373 39.6206 29.0079 39.7014C29.4418 39.9621 29.8424 39.9683 30.0294 40.322C30.2497 40.8496 29.9292 41.5012 30.3632 41.8612C30.7972 42.2211 31.4449 42.0598 31.525 42.6804C31.6051 43.301 31.111 43.4438 31.9056 44.0023C32.4263 44.3685 32.5732 44.2878 33.1074 44.7595C33.2903 44.9369 33.4315 45.1479 33.5219 45.3789C33.6123 45.6099 33.6499 45.8559 33.6323 46.1011C33.6147 46.3464 33.5423 46.5855 33.4198 46.8033C33.2972 47.0211 33.1271 47.2128 32.9204 47.3661C30.8773 49.1783 28.5672 50.8912 27.0583 53.1627C23.3994 58.6614 26.1102 63.7878 26.9247 69.8016C27.1384 67.7722 26.4774 65.1531 26.2036 63.4464C25.9032 61.6218 25.6161 59.3379 26.0768 57.3519C26.2549 56.7837 26.4644 56.2244 26.7044 55.6762L26.7778 55.5521C28.6139 51.5987 32.5732 50.463 34.4961 47.4282C34.7424 47.0124 34.8896 46.5522 34.9276 46.0789C34.9656 45.6056 34.8936 45.1302 34.7164 44.685C34.2157 43.6113 33.7149 43.6113 32.887 42.9907C32.9227 42.7664 32.9098 42.5378 32.849 42.3183C32.7882 42.0987 32.6808 41.8926 32.5332 41.7122C31.999 40.9861 31.6785 41.1351 31.5183 40.7627C31.2913 40.0924 31.7787 39.8317 29.9159 38.7829C29.8481 38.7467 29.7853 38.7029 29.7289 38.6526C29.9426 38.0692 30.6704 37.6409 30.9575 36.7907C31.0956 36.4116 31.0924 36.0002 30.9482 35.623C30.8041 35.2458 30.5274 34.9248 30.1629 34.7116C29.2415 33.9855 26.7044 33.8303 24.9017 33.6255C23.5263 33.4517 23.346 33.7124 22.8052 32.5953C22.4253 31.964 21.9066 31.4142 21.2829 30.9817C20.6687 30.5596 20.1479 30.0942 19.5136 29.6784C17.1901 28.1516 16.0617 27.3386 12.9103 26.7925C11.6084 26.5628 11.575 26.5628 10.8072 25.8119C10.5528 25.4797 10.1982 25.2252 9.78814 25.0805C9.37811 24.9358 8.9311 24.9074 8.50369 24.9989C6.76107 25.1789 2.22759 27.0407 0.64521 28.1516C0.284668 28.4061 -0.0224609 28.5799 -0.0224609 29.1074H-0.00243082Z" fill="#1D1D1D"/>
<path id="Vector_5" fill-rule="evenodd" clip-rule="evenodd" d="M28.1187 6.11772C29.3457 4.05027 31.1285 2.31394 33.2931 1.07827C35.6633 -0.162977 38.2873 -0.162977 40.9179 0.215603C43.0945 0.513502 44.6368 1.05965 44.737 1.28307C44.3564 1.23963 44.0693 1.12171 43.6687 1.04724C42.6338 0.854844 41.4988 0.656245 40.4439 0.538327C38.5835 0.233372 36.6688 0.409416 34.9089 1.04724C32.4128 2.13191 30.3343 3.90151 28.9532 6.11772H28.1187Z" fill="#649612"/>
<path id="Vector_6" fill-rule="evenodd" clip-rule="evenodd" d="M35.8839 25.5394C36.1843 25.8249 36.3045 26.0732 36.6183 26.2469C37.1925 26.5635 37.1859 26.2097 37.7267 26.7372C38.0538 27.0599 38.3543 27.0662 38.5813 27.3578C38.7538 27.6855 38.979 27.9868 39.249 28.2515C40.818 29.5238 42.3202 28.9653 43.8559 27.9971C45.7341 26.7776 47.2203 25.1064 48.1557 23.1624C48.4227 22.6163 48.8234 21.555 49.1305 21.0585C50.2321 21.0585 51.8679 22.0888 52.6491 22.6721C52.9732 22.9197 53.322 23.1379 53.6907 23.3238C54.1714 23.3983 52.8494 21.7102 51.9013 20.9592C51.5875 20.7048 49.0971 19.4449 48.6164 20.0966C48.5666 20.175 48.5263 20.2582 48.4962 20.3448C48.4361 20.4813 48.3827 20.6427 48.3226 20.8103C47.8233 22.352 46.9352 23.7606 45.732 24.9188C44.8107 25.7008 44.3967 26.4207 42.7943 27.3703C42.5006 27.5881 42.1574 27.741 41.7907 27.8174C41.424 27.8937 41.0434 27.8915 40.6778 27.8109C39.7163 27.4944 39.6829 26.7869 39.3424 26.4455C39.0019 26.1042 38.7081 26.2283 38.6748 25.8249C38.6414 25.4215 39.0086 25.3657 38.8484 25.0057C38.7949 24.9188 38.6414 24.9312 38.6147 24.9436C38.2141 25.0802 38.2608 25.4649 37.3862 25.4215C36.8053 25.0615 36.9655 24.714 36.4982 24.4223C36.0308 24.1306 35.3164 24.4223 34.5619 24.3292C33.7607 22.7839 34.7021 21.0461 31.277 18.9236C29.4542 17.7941 27.8919 16.7018 27.4379 14.0269C26.8637 10.5514 28.0388 6.53597 30.4023 4.25828C30.8296 3.84246 32.8927 2.03025 32.3119 1.94336C31.5707 1.97439 29.9283 3.61283 29.5076 4.04727C26.0358 7.62826 24.0327 13.7476 28.199 18.1913C29.0833 19.0198 30.0693 19.7489 31.1368 20.3634C32.5122 21.2633 32.6657 21.6419 33.0263 23.5286C33.4269 25.6635 34.1947 25.6884 35.8839 25.5394Z" fill="#649612"/>
</g>
</g>
</g>
<defs>
<clipPath id="clip0_541_1593">
<rect width="133" height="70" fill="white"/>
</clipPath>
</defs>
</svg>
