<svg width="66" height="39" viewBox="0 0 66 39" fill="none" xmlns="http://www.w3.org/2000/svg">
<g id="master card">
<path id="Vector" d="M65.3003 19.5C65.3003 30.2 56.6003 39 45.8003 39C35.1003 39 26.3003 30.2 26.3003 19.5C26.3003 8.8 35.0003 0 45.7003 0C56.6003 0 65.3003 8.8 65.3003 19.5Z" fill="#F9B50B"/>
<path id="Vector_2" d="M39.2003 19.6C39.2003 18.2 39.0003 16.8 38.8003 15.5H26.8003C26.9003 14.8 27.1003 14.2 27.3003 13.4H38.0003C37.8003 12.7 37.5003 12 37.2003 11.3H28.1003C28.4003 10.6 28.8003 10 29.2003 9.2H36.1003C35.7003 8.5 35.2003 7.8 34.6003 7.1H30.8003C31.4003 6.4 32.0003 5.8 32.8003 5.1C29.4003 1.9 24.8003 0 19.7003 0C9.10029 0.3 0.300293 8.8 0.300293 19.5C0.300293 30.2 9.00029 39 19.8003 39C24.9003 39 29.4003 37 32.9003 33.9C33.6003 33.3 34.2003 32.6 34.9003 31.8H30.9003C30.4003 31.2 29.9003 30.5 29.5003 29.8H36.3003C36.7003 29.2 37.1003 28.5 37.4003 27.7H28.3003C28.0003 27.1 27.7003 26.4 27.5003 25.6H38.2003C38.8003 23.8 39.2003 21.8 39.2003 19.6Z" fill="#C8191C"/>
<path id="Vector_3" d="M26.7002 24.4999L27.0002 22.6999C26.9002 22.6999 26.7002 22.7999 26.5002 22.7999C25.8002 22.7999 25.7002 22.3999 25.8002 22.1999L26.4002 18.5999H27.5002L27.8002 16.5999H26.8002L27.0002 15.3999H24.9002C24.9002 15.3999 23.7002 22.1999 23.7002 22.9999C23.7002 24.1999 24.4002 24.7999 25.4002 24.7999C26.0002 24.7999 26.5002 24.5999 26.7002 24.4999Z" fill="white"/>
<path id="Vector_4" d="M27.4004 21.2001C27.4004 24.1001 29.4004 24.8001 31.0004 24.8001C32.5004 24.8001 33.2004 24.5001 33.2004 24.5001L33.6004 22.5001C33.6004 22.5001 32.5004 23.0001 31.4004 23.0001C29.1004 23.0001 29.5004 21.3001 29.5004 21.3001H33.7004C33.7004 21.3001 34.0004 20.0001 34.0004 19.4001C34.0004 18.1001 33.3004 16.4001 31.0004 16.4001C29.0004 16.3001 27.4004 18.6001 27.4004 21.2001ZM31.0004 18.2001C32.1004 18.2001 31.9004 19.5001 31.9004 19.6001H29.6004C29.7004 19.5001 29.9004 18.2001 31.0004 18.2001Z" fill="white"/>
<path id="Vector_5" d="M44.1004 24.4999L44.5004 22.1999C44.5004 22.1999 43.5004 22.6999 42.7004 22.6999C41.3004 22.6999 40.6004 21.5999 40.6004 20.2999C40.6004 17.7999 41.8004 16.4999 43.3004 16.4999C44.3004 16.4999 45.2004 17.0999 45.2004 17.0999L45.5004 14.8999C45.5004 14.8999 44.3004 14.3999 43.1004 14.3999C40.7004 14.3999 38.4004 16.4999 38.4004 20.3999C38.4004 22.9999 39.6004 24.6999 42.1004 24.6999C43.0004 24.7999 44.1004 24.4999 44.1004 24.4999Z" fill="white"/>
<path id="Vector_6" d="M15.4005 16.3C14.0005 16.3 12.9005 16.7001 12.9005 16.7001L12.6005 18.5C12.6005 18.5 13.5005 18.1 14.9005 18.1C15.6005 18.1 16.2005 18.2 16.2005 18.8C16.2005 19.2 16.1005 19.3 16.1005 19.3H15.2005C13.4005 19.3 11.5005 20 11.5005 22.4C11.5005 24.3 12.7005 24.7001 13.5005 24.7001C14.9005 24.7001 15.6005 23.8 15.7005 23.8L15.6005 24.6H17.3005L18.1005 18.9C18.1005 16.4 16.1005 16.3 15.4005 16.3ZM15.8005 20.9C15.8005 21.2 15.6005 22.9 14.4005 22.9C13.8005 22.9 13.6005 22.4001 13.6005 22.1C13.6005 21.6 13.9005 20.9 15.5005 20.9C15.7005 20.9 15.8005 20.9 15.8005 20.9Z" fill="white"/>
<path id="Vector_7" d="M20.1001 24.7C20.6001 24.7 23.2001 24.8 23.2001 22C23.2001 19.4 20.7001 19.9 20.7001 18.9C20.7001 18.4 21.1001 18.2 21.8001 18.2C22.1001 18.2 23.2001 18.2999 23.2001 18.2999L23.5001 16.4C23.5001 16.4 22.8001 16.2 21.5001 16.2C20.0001 16.2 18.4001 16.8 18.4001 18.9C18.4001 21.3 21.0001 21.1 21.0001 22C21.0001 22.6 20.3001 22.7 19.8001 22.7C18.9001 22.7 17.9001 22.4 17.9001 22.4L17.6001 24.2999C17.8001 24.4999 18.4001 24.7 20.1001 24.7Z" fill="white"/>
<path id="Vector_8" d="M61.3004 14.7L60.9004 17.5C60.9004 17.5 60.1004 16.5 58.9004 16.5C57.0004 16.5 55.4004 18.8 55.4004 21.5C55.4004 23.2 56.2004 24.9 58.0004 24.9C59.2004 24.9 60.0004 24.1 60.0004 24.1L59.9004 24.8H62.0004L63.5004 14.9L61.3004 14.7ZM60.3004 20.1C60.3004 21.2 59.8004 22.7 58.6004 22.7C57.9004 22.7 57.5004 22.1 57.5004 21C57.5004 19.3 58.2004 18.3 59.2004 18.3C59.9004 18.4 60.3004 18.9 60.3004 20.1Z" fill="white"/>
<path id="Vector_9" d="M4.1001 24.6L5.3001 17.2L5.5001 24.6H6.9001L9.6001 17.2L8.5001 24.6H10.7001L12.4001 14.7H9.0001L6.9001 20.8L6.8001 14.7H3.8001L2.1001 24.6H4.1001Z" fill="white"/>
<path id="Vector_10" d="M36.1003 24.6C36.7003 21.2 36.8003 18.4 38.3003 18.9C38.5003 17.6 38.8003 17 39.0003 16.5H38.6003C37.7003 16.5 36.9003 17.7 36.9003 17.7L37.1003 16.6H35.1003L33.8003 24.6H36.1003Z" fill="white"/>
<path id="Vector_11" d="M48.9005 16.3C47.5005 16.3 46.4005 16.7001 46.4005 16.7001L46.1005 18.5C46.1005 18.5 47.0005 18.1 48.4005 18.1C49.1005 18.1 49.7005 18.2 49.7005 18.8C49.7005 19.2 49.6005 19.3 49.6005 19.3H48.7005C46.9005 19.3 45.0005 20 45.0005 22.4C45.0005 24.3 46.2005 24.7001 47.0005 24.7001C48.4005 24.7001 49.1005 23.8 49.2005 23.8L49.1005 24.6H51.0005L51.8005 18.9C51.8005 16.4 49.6005 16.3 48.9005 16.3ZM49.4005 20.9C49.4005 21.2 49.2005 22.9 48.0005 22.9C47.4005 22.9 47.2005 22.4001 47.2005 22.1C47.2005 21.6 47.5005 20.9 49.1005 20.9C49.3005 20.9 49.3005 20.9 49.4005 20.9Z" fill="white"/>
<path id="Vector_12" d="M53.4001 24.6C54.0001 21.2 54.1001 18.4 55.6001 18.9C55.8001 17.6 56.1001 17 56.3001 16.5H55.9001C55.0001 16.5 54.2001 17.7 54.2001 17.7L54.4001 16.6H52.4001L51.1001 24.6H53.4001Z" fill="white"/>
</g>
</svg>
