<svg width="69" height="21" viewBox="0 0 69 21" fill="none" xmlns="http://www.w3.org/2000/svg">
<g id="visa">
<path id="Vector" d="M64.4 0.300049H60.1C58.8 0.300049 57.8 0.700049 57.2 2.00005L49 20.7H54.8C54.8 20.7 55.8 18.2001 56 17.6C56.6 17.6 62.3 17.6 63.1 17.6C63.3 18.3001 63.8 20.6 63.8 20.6H69L64.4 0.300049ZM57.6 13.4C58.1 12.2 59.8 7.70005 59.8 7.70005C59.8 7.80005 60.3 6.50005 60.5 5.80005L60.9 7.60005C60.9 7.60005 62 12.5 62.2 13.5H57.6V13.4Z" fill="#3362AB"/>
<path id="Vector_2" d="M49.4 14C49.4 18.2 45.6 21 39.7 21C37.2 21 34.8 20.5 33.5 19.9L34.3 15.3L35 15.6C36.8 16.4 38 16.7 40.2 16.7C41.8 16.7 43.5 16.1 43.5 14.7C43.5 13.8 42.8 13.2 40.6 12.2C38.5 11.2 35.7 9.6 35.7 6.7C35.7 2.7 39.6 0 45.1 0C47.2 0 49 0.4 50.1 0.9L49.3 5.3L48.9 4.9C47.9 4.5 46.6 4.1 44.7 4.1C42.6 4.2 41.6 5.1 41.6 5.9C41.6 6.8 42.8 7.5 44.7 8.4C47.9 9.9 49.4 11.6 49.4 14Z" fill="#3362AB"/>
<path id="Vector_3" d="M0.600098 0.500098L0.700098 0.100098H9.3001C10.5001 0.100098 11.4001 0.500098 11.7001 1.8001L13.6001 10.8001C11.7001 6.0001 7.3001 2.1001 0.600098 0.500098Z" fill="#F9B50B"/>
<path id="Vector_4" d="M25.7001 0.299951L17.0001 20.6H11.1001L6.1001 3.59995C9.7001 5.89995 12.7001 9.49995 13.8001 12L14.4001 14.1L19.8001 0.199951H25.7001V0.299951Z" fill="#3362AB"/>
<path id="Vector_5" d="M28 0.199951H33.5L30 20.6H24.5L28 0.199951Z" fill="#3362AB"/>
</g>
</svg>
