<svg width="423" height="17" viewBox="0 0 423 17" fill="none" xmlns="http://www.w3.org/2000/svg">
<path d="M1.84082 15L11.3863 5.5C16.6654 0.245982 25.198 0.245978 30.4772 5.5V5.5C35.7563 10.754 44.2889 10.754 49.5681 5.5V5.5C54.8473 0.245978 63.3798 0.245978 68.659 5.5V5.5C73.9382 10.754 82.4708 10.754 87.7499 5.5V5.5C93.0291 0.245978 101.562 0.245978 106.841 5.5V5.5C112.12 10.754 120.653 10.754 125.932 5.5V5.5C131.211 0.245978 139.743 0.245978 145.023 5.5V5.5C150.302 10.754 158.834 10.754 164.114 5.5V5.5C169.393 0.245978 177.925 0.245978 183.204 5.5V5.5C188.484 10.754 197.016 10.754 202.295 5.5V5.5C207.575 0.245978 216.107 0.245978 221.386 5.5V5.5C226.665 10.754 235.198 10.754 240.477 5.5V5.5C245.756 0.245978 254.289 0.245978 259.568 5.5V5.5C264.847 10.754 273.38 10.754 278.659 5.5V5.5C283.938 0.245978 292.471 0.245978 297.75 5.5V5.5C303.029 10.754 311.562 10.754 316.841 5.5V5.5C322.12 0.245978 330.653 0.245978 335.932 5.5V5.5C341.211 10.754 349.743 10.754 355.023 5.5V5.5C360.302 0.245978 368.834 0.245978 374.114 5.5V5.5C379.393 10.754 387.925 10.754 393.204 5.5V5.5C398.484 0.245978 407.016 0.245974 412.295 5.5L421.841 15" stroke="#649612" stroke-width="3"/>
</svg>
